<svg width="1391" height="1158" viewBox="0 0 1391 1158" fill="none" xmlns="http://www.w3.org/2000/svg">
<rect width="1391" height="1158" fill="black"/>
<rect width="1391" height="126" fill="#E9E9EB"/>
<rect width="1391" height="126" fill="#E9E9EB"/>
<path d="M84.905 63.98C84.905 66.8733 84.3567 69.2883 83.26 71.225C82.1867 73.1617 80.67 74.6083 78.71 75.565C76.75 76.5217 74.44 77 71.78 77H63.695V52.01H72.34C76.3767 52.01 79.48 53.0367 81.65 55.09C83.82 57.1433 84.905 60.1067 84.905 63.98ZM77.905 64.225C77.905 59.7217 76.0733 57.47 72.41 57.47H70.45V71.47H71.955C74.0083 71.47 75.5133 70.875 76.47 69.685C77.4267 68.495 77.905 66.675 77.905 64.225ZM97.7631 57.295C100.213 57.295 102.126 57.9017 103.503 59.115C104.88 60.3283 105.568 62.055 105.568 64.295V77H100.948L99.6531 74.445H99.5131C98.9765 75.1217 98.4165 75.6817 97.8331 76.125C97.2731 76.545 96.6198 76.8483 95.8731 77.035C95.1265 77.245 94.2165 77.35 93.1431 77.35C91.4631 77.35 90.0631 76.8367 88.9431 75.81C87.8231 74.7833 87.2631 73.2083 87.2631 71.085C87.2631 69.0083 87.9748 67.4683 89.3981 66.465C90.8448 65.4617 92.9331 64.9017 95.6631 64.785L98.8831 64.68V64.4C98.8831 63.5367 98.6731 62.93 98.2531 62.58C97.8331 62.2067 97.2615 62.02 96.5381 62.02C95.7681 62.02 94.9165 62.16 93.9831 62.44C93.0498 62.6967 92.1048 63.035 91.1481 63.455L89.2231 59.045C90.3431 58.4617 91.6031 58.03 93.0031 57.75C94.4265 57.4467 96.0131 57.295 97.7631 57.295ZM97.3781 68.425C96.1648 68.4717 95.3015 68.6933 94.7881 69.09C94.2981 69.4633 94.0531 70 94.0531 70.7C94.0531 71.3533 94.2281 71.8433 94.5781 72.17C94.9281 72.4733 95.3948 72.625 95.9781 72.625C96.7948 72.625 97.4831 72.3683 98.0431 71.855C98.6265 71.3417 98.9181 70.6767 98.9181 69.86V68.355L97.3781 68.425ZM118.24 77.35C115.3 77.35 112.955 76.5567 111.205 74.97C109.455 73.3833 108.58 70.8633 108.58 67.41C108.58 65.0533 109.023 63.14 109.91 61.67C110.796 60.1767 111.998 59.08 113.515 58.38C115.055 57.6567 116.805 57.295 118.765 57.295C119.955 57.295 121.075 57.4233 122.125 57.68C123.198 57.9367 124.19 58.2983 125.1 58.765L123.14 63.7C122.346 63.35 121.6 63.07 120.9 62.86C120.223 62.65 119.511 62.545 118.765 62.545C117.761 62.545 116.945 62.9417 116.315 63.735C115.685 64.5283 115.37 65.7417 115.37 67.375C115.37 69.055 115.685 70.2567 116.315 70.98C116.968 71.68 117.796 72.03 118.8 72.03C119.756 72.03 120.713 71.8783 121.67 71.575C122.65 71.2717 123.571 70.8517 124.435 70.315V75.635C123.641 76.1483 122.743 76.5683 121.74 76.895C120.736 77.1983 119.57 77.35 118.24 77.35ZM134.307 60.865C134.307 61.6583 134.272 62.5333 134.202 63.49C134.132 64.4467 134.039 65.3217 133.922 66.115H134.062C134.319 65.7183 134.645 65.2167 135.042 64.61C135.462 64.0033 135.824 63.5017 136.127 63.105L140.467 57.645H147.922L141.202 65.87L148.342 77H140.712L136.477 70.07L134.307 71.715V77H127.587V50.4H134.307V60.865ZM158.673 57.295C161.497 57.295 163.725 58.03 165.358 59.5C166.992 60.97 167.808 63.1867 167.808 66.15V69.125H155.873C155.92 70.1283 156.293 70.9567 156.993 71.61C157.717 72.2633 158.755 72.59 160.108 72.59C161.322 72.59 162.43 72.4733 163.433 72.24C164.437 72.0067 165.475 71.6333 166.548 71.12V75.915C165.615 76.405 164.588 76.7667 163.468 77C162.372 77.2333 160.983 77.35 159.303 77.35C157.343 77.35 155.593 77.0117 154.053 76.335C152.537 75.635 151.335 74.55 150.448 73.08C149.562 71.61 149.118 69.7317 149.118 67.445C149.118 65.1117 149.515 63.1983 150.308 61.705C151.125 60.2117 152.245 59.1033 153.668 58.38C155.115 57.6567 156.783 57.295 158.673 57.295ZM158.918 61.845C158.125 61.845 157.46 62.09 156.923 62.58C156.41 63.07 156.107 63.8517 156.013 64.925H161.753C161.73 64.0617 161.473 63.3383 160.983 62.755C160.517 62.1483 159.828 61.845 158.918 61.845ZM177.579 77H170.894V50.4H177.579V77ZM188.192 56.42C188.192 57.0967 188.169 57.75 188.122 58.38C188.076 59.01 188.017 59.5933 187.947 60.13H188.192C188.682 59.3367 189.336 58.6717 190.152 58.135C190.969 57.575 192.031 57.295 193.337 57.295C195.344 57.295 196.989 58.1467 198.272 59.85C199.556 61.5533 200.197 64.0267 200.197 67.27C200.197 70.5833 199.544 73.0917 198.237 74.795C196.931 76.4983 195.227 77.35 193.127 77.35C191.774 77.35 190.736 77.1167 190.012 76.65C189.289 76.16 188.682 75.6467 188.192 75.11H187.772L186.722 77H181.507V50.4H188.192V56.42ZM190.887 62.545C189.954 62.545 189.266 62.8717 188.822 63.525C188.402 64.1783 188.192 65.1933 188.192 66.57V67.515C188.192 69.0083 188.391 70.1283 188.787 70.875C189.207 71.5983 189.931 71.96 190.957 71.96C192.591 71.96 193.407 70.3733 193.407 67.2C193.407 64.0967 192.567 62.545 190.887 62.545ZM209.983 77H203.298V50.4H209.983V77ZM217.306 49.84C218.263 49.84 219.091 50.0383 219.791 50.435C220.514 50.8317 220.876 51.625 220.876 52.815C220.876 53.9583 220.514 54.74 219.791 55.16C219.091 55.5567 218.263 55.755 217.306 55.755C216.326 55.755 215.486 55.5567 214.786 55.16C214.109 54.74 213.771 53.9583 213.771 52.815C213.771 51.625 214.109 50.8317 214.786 50.435C215.486 50.0383 216.326 49.84 217.306 49.84ZM220.631 57.645V77H213.946V57.645H220.631ZM233.413 77.35C230.473 77.35 228.128 76.5567 226.378 74.97C224.628 73.3833 223.753 70.8633 223.753 67.41C223.753 65.0533 224.196 63.14 225.083 61.67C225.97 60.1767 227.171 59.08 228.688 58.38C230.228 57.6567 231.978 57.295 233.938 57.295C235.128 57.295 236.248 57.4233 237.298 57.68C238.371 57.9367 239.363 58.2983 240.273 58.765L238.313 63.7C237.52 63.35 236.773 63.07 236.073 62.86C235.396 62.65 234.685 62.545 233.938 62.545C232.935 62.545 232.118 62.9417 231.488 63.735C230.858 64.5283 230.543 65.7417 230.543 67.375C230.543 69.055 230.858 70.2567 231.488 70.98C232.141 71.68 232.97 72.03 233.973 72.03C234.93 72.03 235.886 71.8783 236.843 71.575C237.823 71.2717 238.745 70.8517 239.608 70.315V75.635C238.815 76.1483 237.916 76.5683 236.913 76.895C235.91 77.1983 234.743 77.35 233.413 77.35ZM249.48 60.865C249.48 61.6583 249.445 62.5333 249.375 63.49C249.305 64.4467 249.212 65.3217 249.095 66.115H249.235C249.492 65.7183 249.819 65.2167 250.215 64.61C250.635 64.0033 250.997 63.5017 251.3 63.105L255.64 57.645H263.095L256.375 65.87L263.515 77H255.885L251.65 70.07L249.48 71.715V77H242.76V50.4H249.48V60.865Z" fill="black"/>
<path d="M289.98 75.48V55.8H294.9V57.68H292.62V73.6H294.9V75.48H289.98ZM300.208 59.38V66.84C302.568 66.82 304.648 66.68 306.888 66.3L307.188 68.94C304.408 69.44 301.748 69.52 298.628 69.52H296.988V56.8H305.768V59.38H300.208ZM313.688 61.8V64.44H311.168V73.94H307.928V55.1H311.168V61.8H313.688ZM330.586 55.12V64.58H327.526V55.12H330.586ZM323.546 61.7H321.146C320.046 63.44 318.206 64.74 315.526 65.68L314.166 63.46C315.706 62.96 316.866 62.32 317.686 61.6L314.746 61.94L314.366 59.48L319.206 59.28C319.266 59.08 319.286 58.88 319.326 58.66H315.106V56.16H322.526C322.526 57.26 322.426 58.24 322.206 59.18H323.546V55.36H326.546V64.54H323.546V61.7ZM320.886 71.24H331.106V73.7H317.646V68.28H327.346V67.64H317.626V65.2H330.586V70.58H320.886V71.24ZM343.965 59.44V58.72H337.605V59.44H343.965ZM347.165 55.44V61.78H334.405V55.44H337.605V56.4H343.965V55.44H347.165ZM337.405 70.8V71.44H347.765V73.82H334.205V68.62H344.105V68.06H334.165V65.72H347.305V70.8H337.405ZM332.305 62.48H349.305V64.98H332.305V62.48ZM361.623 63.02L361.983 65.56C359.383 66 356.883 66.06 352.983 66.06H351.283V59.84H356.783V58.66H351.263V56.12H359.983V62.22H354.483V63.5C357.403 63.48 359.443 63.38 361.623 63.02ZM353.083 69.94V67.4H366.023V73.9H362.783V69.94H353.083ZM362.783 55.12H366.023V66.7H362.783V55.12ZM368.702 75.48V73.6H370.982V57.68H368.702V55.8H373.622V75.48H368.702Z" fill="black"/>
<path d="M1293 54L1311 72L1329 54" stroke="black" stroke-width="6"/>
<rect y="129" width="1391" height="126" fill="#E9E9EB"/>
<rect y="258" width="1391" height="126" fill="#E9E9EB"/>
<rect y="387" width="1391" height="126" fill="#E9E9EB"/>
<rect y="516" width="1391" height="126" fill="#E9E9EB"/>
<rect y="645" width="1391" height="126" fill="#E9E9EB"/>
<rect y="774" width="1391" height="126" fill="#E9E9EB"/>
<rect y="903" width="1391" height="126" fill="#E9E9EB"/>
<rect y="1032" width="1391" height="126" fill="#E9E9EB"/>
<path d="M85.115 206H78.325V195.815H70.485V206H63.695V181.01H70.485V190.285H78.325V181.01H85.115V206ZM98.8569 186.295C101.307 186.295 103.22 186.902 104.597 188.115C105.974 189.328 106.662 191.055 106.662 193.295V206H102.042L100.747 203.445H100.607C100.07 204.122 99.5102 204.682 98.9269 205.125C98.3669 205.545 97.7135 205.848 96.9669 206.035C96.2202 206.245 95.3102 206.35 94.2369 206.35C92.5569 206.35 91.1569 205.837 90.0369 204.81C88.9169 203.783 88.3569 202.208 88.3569 200.085C88.3569 198.008 89.0685 196.468 90.4919 195.465C91.9385 194.462 94.0269 193.902 96.7569 193.785L99.9769 193.68V193.4C99.9769 192.537 99.7669 191.93 99.3469 191.58C98.9269 191.207 98.3552 191.02 97.6319 191.02C96.8619 191.02 96.0102 191.16 95.0769 191.44C94.1435 191.697 93.1985 192.035 92.2419 192.455L90.3169 188.045C91.4369 187.462 92.6969 187.03 94.0969 186.75C95.5202 186.447 97.1069 186.295 98.8569 186.295ZM98.4719 197.425C97.2585 197.472 96.3952 197.693 95.8819 198.09C95.3919 198.463 95.1469 199 95.1469 199.7C95.1469 200.353 95.3219 200.843 95.6719 201.17C96.0219 201.473 96.4885 201.625 97.0719 201.625C97.8885 201.625 98.5769 201.368 99.1369 200.855C99.7202 200.342 100.012 199.677 100.012 198.86V197.355L98.4719 197.425ZM122.624 186.295C124.63 186.295 126.264 186.855 127.524 187.975C128.784 189.095 129.414 190.903 129.414 193.4V206H122.729V195.43C122.729 194.147 122.542 193.178 122.169 192.525C121.795 191.872 121.2 191.545 120.384 191.545C119.124 191.545 118.272 192.058 117.829 193.085C117.409 194.112 117.199 195.593 117.199 197.53V206H110.514V186.645H115.554L116.464 189.2H116.709C117.315 188.29 118.109 187.578 119.089 187.065C120.092 186.552 121.27 186.295 122.624 186.295ZM139.281 206.35C137.297 206.35 135.652 205.498 134.346 203.795C133.062 202.092 132.421 199.607 132.421 196.34C132.421 193.027 133.074 190.53 134.381 188.85C135.711 187.147 137.426 186.295 139.526 186.295C140.832 186.295 141.871 186.563 142.641 187.1C143.434 187.637 144.087 188.313 144.601 189.13H144.741C144.647 188.64 144.566 187.963 144.496 187.1C144.449 186.237 144.426 185.397 144.426 184.58V179.4H151.146V206H146.106L144.671 203.55H144.426C143.959 204.32 143.317 204.985 142.501 205.545C141.684 206.082 140.611 206.35 139.281 206.35ZM142.011 201.065C143.084 201.065 143.842 200.727 144.286 200.05C144.729 199.373 144.962 198.335 144.986 196.935V196.41C144.986 194.893 144.764 193.727 144.321 192.91C143.901 192.093 143.107 191.685 141.941 191.685C141.147 191.685 140.482 192.07 139.946 192.84C139.432 193.61 139.176 194.812 139.176 196.445C139.176 198.055 139.432 199.233 139.946 199.98C140.482 200.703 141.171 201.065 142.011 201.065ZM169.436 200.05C169.436 201.263 169.156 202.348 168.596 203.305C168.059 204.262 167.184 205.008 165.971 205.545C164.781 206.082 163.206 206.35 161.246 206.35C159.869 206.35 158.633 206.268 157.536 206.105C156.463 205.965 155.366 205.685 154.246 205.265V199.91C155.483 200.47 156.731 200.878 157.991 201.135C159.251 201.368 160.243 201.485 160.966 201.485C162.413 201.485 163.136 201.158 163.136 200.505C163.136 200.225 163.019 199.98 162.786 199.77C162.553 199.56 162.133 199.327 161.526 199.07C160.943 198.813 160.103 198.463 159.006 198.02C157.396 197.343 156.194 196.573 155.401 195.71C154.608 194.823 154.211 193.587 154.211 192C154.211 190.11 154.934 188.687 156.381 187.73C157.851 186.773 159.788 186.295 162.191 186.295C163.474 186.295 164.676 186.435 165.796 186.715C166.916 186.995 168.083 187.403 169.296 187.94L167.476 192.245C166.519 191.802 165.551 191.452 164.571 191.195C163.591 190.938 162.809 190.81 162.226 190.81C161.129 190.81 160.581 191.078 160.581 191.615C160.581 191.848 160.674 192.058 160.861 192.245C161.071 192.432 161.456 192.642 162.016 192.875C162.576 193.108 163.393 193.447 164.466 193.89C165.586 194.333 166.508 194.823 167.231 195.36C167.978 195.873 168.526 196.503 168.876 197.25C169.249 197.973 169.436 198.907 169.436 200.05ZM181.252 206.35C178.312 206.35 175.967 205.557 174.217 203.97C172.467 202.383 171.592 199.863 171.592 196.41C171.592 194.053 172.035 192.14 172.922 190.67C173.809 189.177 175.01 188.08 176.527 187.38C178.067 186.657 179.817 186.295 181.777 186.295C182.967 186.295 184.087 186.423 185.137 186.68C186.21 186.937 187.202 187.298 188.112 187.765L186.152 192.7C185.359 192.35 184.612 192.07 183.912 191.86C183.235 191.65 182.524 191.545 181.777 191.545C180.774 191.545 179.957 191.942 179.327 192.735C178.697 193.528 178.382 194.742 178.382 196.375C178.382 198.055 178.697 199.257 179.327 199.98C179.98 200.68 180.809 201.03 181.812 201.03C182.769 201.03 183.725 200.878 184.682 200.575C185.662 200.272 186.584 199.852 187.447 199.315V204.635C186.654 205.148 185.755 205.568 184.752 205.895C183.749 206.198 182.582 206.35 181.252 206.35ZM197.284 183.18C197.284 184.603 197.249 185.805 197.179 186.785C197.109 187.765 197.051 188.512 197.004 189.025H197.319C197.949 188.022 198.708 187.322 199.594 186.925C200.481 186.505 201.496 186.295 202.639 186.295C203.923 186.295 205.078 186.54 206.104 187.03C207.131 187.52 207.948 188.29 208.554 189.34C209.184 190.367 209.499 191.72 209.499 193.4V206H202.779V195.43C202.779 192.84 202.009 191.545 200.469 191.545C199.256 191.545 198.416 192.058 197.949 193.085C197.506 194.112 197.284 195.582 197.284 197.495V206H190.599V179.4H197.284V183.18ZM232.177 186.645V206H227.137L226.297 203.585H225.912C225.305 204.565 224.477 205.277 223.427 205.72C222.377 206.14 221.257 206.35 220.067 206.35C218.807 206.35 217.663 206.105 216.637 205.615C215.61 205.125 214.793 204.355 214.187 203.305C213.603 202.255 213.312 200.902 213.312 199.245V186.645H219.997V197.215C219.997 198.475 220.172 199.432 220.522 200.085C220.895 200.738 221.49 201.065 222.307 201.065C223.567 201.065 224.407 200.552 224.827 199.525C225.27 198.498 225.492 197.028 225.492 195.115V186.645H232.177ZM242.779 183.18C242.779 184.603 242.744 185.805 242.674 186.785C242.604 187.765 242.545 188.512 242.499 189.025H242.814C243.444 188.022 244.202 187.322 245.089 186.925C245.975 186.505 246.99 186.295 248.134 186.295C249.417 186.295 250.572 186.54 251.599 187.03C252.625 187.52 253.442 188.29 254.049 189.34C254.679 190.367 254.994 191.72 254.994 193.4V206H248.274V195.43C248.274 192.84 247.504 191.545 245.964 191.545C244.75 191.545 243.91 192.058 243.444 193.085C243 194.112 242.779 195.582 242.779 197.495V206H236.094V179.4H242.779V183.18ZM273.226 200.05C273.226 201.263 272.946 202.348 272.386 203.305C271.849 204.262 270.974 205.008 269.761 205.545C268.571 206.082 266.996 206.35 265.036 206.35C263.659 206.35 262.423 206.268 261.326 206.105C260.253 205.965 259.156 205.685 258.036 205.265V199.91C259.273 200.47 260.521 200.878 261.781 201.135C263.041 201.368 264.033 201.485 264.756 201.485C266.203 201.485 266.926 201.158 266.926 200.505C266.926 200.225 266.809 199.98 266.576 199.77C266.343 199.56 265.923 199.327 265.316 199.07C264.733 198.813 263.893 198.463 262.796 198.02C261.186 197.343 259.984 196.573 259.191 195.71C258.398 194.823 258.001 193.587 258.001 192C258.001 190.11 258.724 188.687 260.171 187.73C261.641 186.773 263.578 186.295 265.981 186.295C267.264 186.295 268.466 186.435 269.586 186.715C270.706 186.995 271.873 187.403 273.086 187.94L271.266 192.245C270.309 191.802 269.341 191.452 268.361 191.195C267.381 190.938 266.599 190.81 266.016 190.81C264.919 190.81 264.371 191.078 264.371 191.615C264.371 191.848 264.464 192.058 264.651 192.245C264.861 192.432 265.246 192.642 265.806 192.875C266.366 193.108 267.183 193.447 268.256 193.89C269.376 194.333 270.298 194.823 271.021 195.36C271.768 195.873 272.316 196.503 272.666 197.25C273.039 197.973 273.226 198.907 273.226 200.05ZM285.042 206.35C282.102 206.35 279.757 205.557 278.007 203.97C276.257 202.383 275.382 199.863 275.382 196.41C275.382 194.053 275.825 192.14 276.712 190.67C277.599 189.177 278.8 188.08 280.317 187.38C281.857 186.657 283.607 186.295 285.567 186.295C286.757 186.295 287.877 186.423 288.927 186.68C290 186.937 290.992 187.298 291.902 187.765L289.942 192.7C289.149 192.35 288.402 192.07 287.702 191.86C287.025 191.65 286.314 191.545 285.567 191.545C284.564 191.545 283.747 191.942 283.117 192.735C282.487 193.528 282.172 194.742 282.172 196.375C282.172 198.055 282.487 199.257 283.117 199.98C283.77 200.68 284.599 201.03 285.602 201.03C286.559 201.03 287.515 200.878 288.472 200.575C289.452 200.272 290.374 199.852 291.237 199.315V204.635C290.444 205.148 289.545 205.568 288.542 205.895C287.539 206.198 286.372 206.35 285.042 206.35ZM301.074 183.18C301.074 184.603 301.039 185.805 300.969 186.785C300.899 187.765 300.841 188.512 300.794 189.025H301.109C301.739 188.022 302.498 187.322 303.384 186.925C304.271 186.505 305.286 186.295 306.429 186.295C307.713 186.295 308.868 186.54 309.894 187.03C310.921 187.52 311.738 188.29 312.344 189.34C312.974 190.367 313.289 191.72 313.289 193.4V206H306.569V195.43C306.569 192.84 305.799 191.545 304.259 191.545C303.046 191.545 302.206 192.058 301.739 193.085C301.296 194.112 301.074 195.582 301.074 197.495V206H294.389V179.4H301.074V183.18ZM329.247 186.295C331.253 186.295 332.887 186.855 334.147 187.975C335.407 189.095 336.037 190.903 336.037 193.4V206H329.352V195.43C329.352 194.147 329.165 193.178 328.792 192.525C328.418 191.872 327.823 191.545 327.007 191.545C325.747 191.545 324.895 192.058 324.452 193.085C324.032 194.112 323.822 195.593 323.822 197.53V206H317.137V186.645H322.177L323.087 189.2H323.332C323.938 188.29 324.732 187.578 325.712 187.065C326.715 186.552 327.893 186.295 329.247 186.295ZM348.599 186.295C351.422 186.295 353.65 187.03 355.284 188.5C356.917 189.97 357.734 192.187 357.734 195.15V198.125H345.799C345.845 199.128 346.219 199.957 346.919 200.61C347.642 201.263 348.68 201.59 350.034 201.59C351.247 201.59 352.355 201.473 353.359 201.24C354.362 201.007 355.4 200.633 356.474 200.12V204.915C355.54 205.405 354.514 205.767 353.394 206C352.297 206.233 350.909 206.35 349.229 206.35C347.269 206.35 345.519 206.012 343.979 205.335C342.462 204.635 341.26 203.55 340.374 202.08C339.487 200.61 339.044 198.732 339.044 196.445C339.044 194.112 339.44 192.198 340.234 190.705C341.05 189.212 342.17 188.103 343.594 187.38C345.04 186.657 346.709 186.295 348.599 186.295ZM348.844 190.845C348.05 190.845 347.385 191.09 346.849 191.58C346.335 192.07 346.032 192.852 345.939 193.925H351.679C351.655 193.062 351.399 192.338 350.909 191.755C350.442 191.148 349.754 190.845 348.844 190.845ZM369.535 186.295C372.358 186.295 374.586 187.03 376.22 188.5C377.853 189.97 378.67 192.187 378.67 195.15V198.125H366.735C366.781 199.128 367.155 199.957 367.855 200.61C368.578 201.263 369.616 201.59 370.97 201.59C372.183 201.59 373.291 201.473 374.295 201.24C375.298 201.007 376.336 200.633 377.41 200.12V204.915C376.476 205.405 375.45 205.767 374.33 206C373.233 206.233 371.845 206.35 370.165 206.35C368.205 206.35 366.455 206.012 364.915 205.335C363.398 204.635 362.196 203.55 361.31 202.08C360.423 200.61 359.98 198.732 359.98 196.445C359.98 194.112 360.376 192.198 361.17 190.705C361.986 189.212 363.106 188.103 364.53 187.38C365.976 186.657 367.645 186.295 369.535 186.295ZM369.78 190.845C368.986 190.845 368.321 191.09 367.785 191.58C367.271 192.07 366.968 192.852 366.875 193.925H372.615C372.591 193.062 372.335 192.338 371.845 191.755C371.378 191.148 370.69 190.845 369.78 190.845ZM388.44 185.42C388.44 186.097 388.417 186.75 388.37 187.38C388.324 188.01 388.265 188.593 388.195 189.13H388.44C388.93 188.337 389.584 187.672 390.4 187.135C391.217 186.575 392.279 186.295 393.585 186.295C395.592 186.295 397.237 187.147 398.52 188.85C399.804 190.553 400.445 193.027 400.445 196.27C400.445 199.583 399.792 202.092 398.485 203.795C397.179 205.498 395.475 206.35 393.375 206.35C392.022 206.35 390.984 206.117 390.26 205.65C389.537 205.16 388.93 204.647 388.44 204.11H388.02L386.97 206H381.755V179.4H388.44V185.42ZM391.135 191.545C390.202 191.545 389.514 191.872 389.07 192.525C388.65 193.178 388.44 194.193 388.44 195.57V196.515C388.44 198.008 388.639 199.128 389.035 199.875C389.455 200.598 390.179 200.96 391.205 200.96C392.839 200.96 393.655 199.373 393.655 196.2C393.655 193.097 392.815 191.545 391.135 191.545ZM412.996 186.295C415.446 186.295 417.359 186.902 418.736 188.115C420.112 189.328 420.801 191.055 420.801 193.295V206H416.181L414.886 203.445H414.746C414.209 204.122 413.649 204.682 413.066 205.125C412.506 205.545 411.852 205.848 411.106 206.035C410.359 206.245 409.449 206.35 408.376 206.35C406.696 206.35 405.296 205.837 404.176 204.81C403.056 203.783 402.496 202.208 402.496 200.085C402.496 198.008 403.207 196.468 404.631 195.465C406.077 194.462 408.166 193.902 410.896 193.785L414.116 193.68V193.4C414.116 192.537 413.906 191.93 413.486 191.58C413.066 191.207 412.494 191.02 411.771 191.02C411.001 191.02 410.149 191.16 409.216 191.44C408.282 191.697 407.337 192.035 406.381 192.455L404.456 188.045C405.576 187.462 406.836 187.03 408.236 186.75C409.659 186.447 411.246 186.295 412.996 186.295ZM412.611 197.425C411.397 197.472 410.534 197.693 410.021 198.09C409.531 198.463 409.286 199 409.286 199.7C409.286 200.353 409.461 200.843 409.811 201.17C410.161 201.473 410.627 201.625 411.211 201.625C412.027 201.625 412.716 201.368 413.276 200.855C413.859 200.342 414.151 199.677 414.151 198.86V197.355L412.611 197.425ZM431.337 206H424.652V179.4H431.337V206ZM441.951 206H435.266V179.4H441.951V206ZM460.509 197.53C460.369 196.947 460.229 196.27 460.089 195.5C459.949 194.73 459.821 194.007 459.704 193.33C459.611 192.63 459.541 192.105 459.494 191.755H459.389C459.342 192.105 459.261 192.63 459.144 193.33C459.027 194.03 458.887 194.777 458.724 195.57C458.584 196.363 458.432 197.098 458.269 197.775L456.309 206H449.274L443.989 186.645H450.569L452.144 194.065C452.261 194.602 452.377 195.255 452.494 196.025C452.611 196.772 452.716 197.542 452.809 198.335C452.926 199.105 452.996 199.805 453.019 200.435H453.124C453.147 199.968 453.206 199.432 453.299 198.825C453.392 198.218 453.486 197.612 453.579 197.005C453.696 196.398 453.801 195.862 453.894 195.395C453.987 194.928 454.046 194.613 454.069 194.45L455.854 186.645H463.239L464.884 194.555C464.977 194.998 465.082 195.57 465.199 196.27C465.339 196.947 465.467 197.658 465.584 198.405C465.724 199.152 465.817 199.828 465.864 200.435H465.969C466.016 199.805 466.086 199.093 466.179 198.3C466.272 197.483 466.377 196.702 466.494 195.955C466.611 195.185 466.727 194.555 466.844 194.065L468.559 186.645H474.999L469.679 206H462.539L460.509 197.53ZM485.75 186.295C488.573 186.295 490.801 187.03 492.435 188.5C494.068 189.97 494.885 192.187 494.885 195.15V198.125H482.95C482.996 199.128 483.37 199.957 484.07 200.61C484.793 201.263 485.831 201.59 487.185 201.59C488.398 201.59 489.506 201.473 490.51 201.24C491.513 201.007 492.551 200.633 493.625 200.12V204.915C492.691 205.405 491.665 205.767 490.545 206C489.448 206.233 488.06 206.35 486.38 206.35C484.42 206.35 482.67 206.012 481.13 205.335C479.613 204.635 478.411 203.55 477.525 202.08C476.638 200.61 476.195 198.732 476.195 196.445C476.195 194.112 476.591 192.198 477.385 190.705C478.201 189.212 479.321 188.103 480.745 187.38C482.191 186.657 483.86 186.295 485.75 186.295ZM485.995 190.845C485.201 190.845 484.536 191.09 484 191.58C483.486 192.07 483.183 192.852 483.09 193.925H488.83C488.806 193.062 488.55 192.338 488.06 191.755C487.593 191.148 486.905 190.845 485.995 190.845ZM509.66 186.295C510.034 186.295 510.419 186.318 510.815 186.365C511.212 186.412 511.504 186.458 511.69 186.505L511.095 192.805C510.862 192.758 510.57 192.712 510.22 192.665C509.894 192.618 509.427 192.595 508.82 192.595C508.26 192.595 507.654 192.677 507 192.84C506.37 193.003 505.822 193.365 505.355 193.925C504.889 194.462 504.655 195.313 504.655 196.48V206H497.97V186.645H502.94L503.99 189.725H504.305C504.842 188.768 505.589 187.963 506.545 187.31C507.525 186.633 508.564 186.295 509.66 186.295ZM525.507 191.65H521.377V206H514.692V191.65H512.137V188.36L514.832 186.715V186.4C514.832 183.903 515.345 182.083 516.372 180.94C517.398 179.797 519.078 179.225 521.412 179.225C522.415 179.225 523.325 179.307 524.142 179.47C524.958 179.61 525.81 179.832 526.697 180.135L525.262 184.475C524.935 184.382 524.562 184.3 524.142 184.23C523.745 184.16 523.313 184.125 522.847 184.125C521.867 184.125 521.377 184.79 521.377 186.12V186.645H525.507V191.65ZM536.15 186.295C538.973 186.295 541.201 187.03 542.835 188.5C544.468 189.97 545.285 192.187 545.285 195.15V198.125H533.35C533.396 199.128 533.77 199.957 534.47 200.61C535.193 201.263 536.231 201.59 537.585 201.59C538.798 201.59 539.906 201.473 540.91 201.24C541.913 201.007 542.951 200.633 544.025 200.12V204.915C543.091 205.405 542.065 205.767 540.945 206C539.848 206.233 538.46 206.35 536.78 206.35C534.82 206.35 533.07 206.012 531.53 205.335C530.013 204.635 528.811 203.55 527.925 202.08C527.038 200.61 526.595 198.732 526.595 196.445C526.595 194.112 526.991 192.198 527.785 190.705C528.601 189.212 529.721 188.103 531.145 187.38C532.591 186.657 534.26 186.295 536.15 186.295ZM536.395 190.845C535.601 190.845 534.936 191.09 534.4 191.58C533.886 192.07 533.583 192.852 533.49 193.925H539.23C539.206 193.062 538.95 192.338 538.46 191.755C537.993 191.148 537.305 190.845 536.395 190.845ZM560.06 186.295C560.434 186.295 560.819 186.318 561.215 186.365C561.612 186.412 561.904 186.458 562.09 186.505L561.495 192.805C561.262 192.758 560.97 192.712 560.62 192.665C560.294 192.618 559.827 192.595 559.22 192.595C558.66 192.595 558.054 192.677 557.4 192.84C556.77 193.003 556.222 193.365 555.755 193.925C555.289 194.462 555.055 195.313 555.055 196.48V206H548.37V186.645H553.34L554.39 189.725H554.705C555.242 188.768 555.989 187.963 556.945 187.31C557.925 186.633 558.964 186.295 560.06 186.295Z" fill="black"/>
<path d="M588.98 204.48V184.8H593.9V186.68H591.62V202.6H593.9V204.48H588.98ZM606.328 185.92V188.42H595.288V185.92H599.188V184.1H602.428V185.92H606.328ZM599.228 192.58C599.228 193.44 599.888 193.84 600.808 193.84C601.728 193.84 602.388 193.44 602.388 192.58C602.388 191.74 601.728 191.34 600.808 191.34C599.888 191.34 599.228 191.74 599.228 192.58ZM605.488 192.58C605.488 194.76 603.528 196.28 600.808 196.28C598.088 196.28 596.128 194.76 596.128 192.58C596.128 190.44 598.088 188.9 600.808 188.9C603.528 188.9 605.488 190.44 605.488 192.58ZM601.108 197.14V200.08H610.768V202.62H597.868V197.14H601.108ZM610.208 189.62H612.548V192.26H610.208V198.16H606.968V184.12H610.208V189.62ZM628.586 192.6V195.14H615.206V185.56H628.466V188.14H618.426V192.6H628.586ZM613.326 198.18H630.326V200.78H613.326V198.18ZM647.825 190.62L646.585 193.22C643.205 192.74 641.025 191.26 639.825 189.36C638.625 191.26 636.445 192.74 633.065 193.22L631.825 190.62C636.605 189.96 638.105 187.4 638.105 185.42V184.62H641.545V185.42C641.545 187.4 643.045 189.96 647.825 190.62ZM648.305 194.28V196.82H644.765V202.92H641.545V196.82H638.185V202.92H634.965V196.82H631.325V194.28H648.305ZM665.823 190.62L664.583 193.22C661.203 192.74 659.023 191.26 657.823 189.36C656.623 191.26 654.443 192.74 651.063 193.22L649.823 190.62C654.603 189.96 656.103 187.4 656.103 185.42V184.62H659.543V185.42C659.543 187.4 661.043 189.96 665.823 190.62ZM666.303 194.28V196.82H662.763V202.92H659.543V196.82H656.183V202.92H652.963V196.82H649.323V194.28H666.303ZM671.102 185.8V195.82C672.622 195.78 674.002 195.66 675.482 195.36L675.882 198.04C673.742 198.48 671.742 198.56 669.302 198.56H667.922V185.8H671.102ZM676.542 189.84V184.4H679.542V202.12H676.542V192.42H673.142V189.84H676.542ZM680.522 184.12H683.582V202.88H680.522V184.12ZM691.72 190.72V189.34H688.92V190.72H691.72ZM694.92 184.98V193.2H685.72V184.98H688.92V186.94H691.72V184.98H694.92ZM690.76 199.62V200.34H700.68V202.8H687.56V197.34H697V196.64H687.54V194.2H700.2V199.62H690.76ZM700.2 187.5H702.52V190.1H700.2V193.58H696.96V184.12H700.2V187.5ZM708.838 189.9V188.86H707.018V189.9H708.838ZM711.818 185.22V192.3H704.038V185.22H707.018V186.52H708.838V185.22H711.818ZM712.318 192.84L712.518 195.16C711.558 195.36 710.498 195.5 709.438 195.6V201.48H706.378V195.78C705.238 195.82 704.198 195.84 703.338 195.84L702.998 193.26C705.498 193.26 709.418 193.22 712.318 192.84ZM713.098 196.3V184.36H716.098V202.12H713.098V198.7H710.438V196.3H713.098ZM716.958 184.12H720.018V202.9H716.958V184.12ZM726.337 196C727.517 196 728.277 194.78 728.277 192.14C728.277 189.5 727.517 188.28 726.337 188.28C725.177 188.28 724.417 189.5 724.417 192.14C724.417 194.78 725.177 196 726.337 196ZM726.337 185.34C729.237 185.34 731.397 187.94 731.397 192.14C731.397 196.34 729.237 198.94 726.337 198.94C723.457 198.94 721.297 196.34 721.297 192.14C721.297 187.94 723.457 185.34 726.337 185.34ZM738.677 190.98V193.62H736.157V202.9H732.917V184.12H736.157V190.98H738.677ZM744.215 188.12V196.2C744.615 196.18 745.015 196.16 745.415 196.16V188.12H744.215ZM748.535 188.12V195.96C749.195 195.9 749.855 195.82 750.475 195.76L750.695 198.08C746.955 198.76 742.735 198.84 739.575 198.84L739.255 196.26H741.095V188.12H739.715V185.58H750.115V188.12H748.535ZM751.995 184.12H755.235V202.88H751.995V193.38H749.635V190.8H751.995V184.12ZM757.694 204.48V202.6H759.974V186.68H757.694V184.8H762.614V204.48H757.694Z" fill="black"/>
<path d="M1293 183L1311 201L1329 183" stroke="black" stroke-width="6"/>
<path d="M75.21 335H62.19V331.15L65.305 329.96V315.015L62.19 313.86V310.01H75.21V313.86L72.095 315.015V329.96L75.21 331.15V335ZM90.135 315.295C92.1417 315.295 93.775 315.855 95.035 316.975C96.295 318.095 96.925 319.903 96.925 322.4V335H90.24V324.43C90.24 323.147 90.0534 322.178 89.68 321.525C89.3067 320.872 88.7117 320.545 87.895 320.545C86.635 320.545 85.7834 321.058 85.34 322.085C84.92 323.112 84.71 324.593 84.71 326.53V335H78.025V315.645H83.065L83.975 318.2H84.22C84.8267 317.29 85.62 316.578 86.6 316.065C87.6034 315.552 88.7817 315.295 90.135 315.295ZM112.882 315.295C114.889 315.295 116.522 315.855 117.782 316.975C119.042 318.095 119.672 319.903 119.672 322.4V335H112.987V324.43C112.987 323.147 112.801 322.178 112.427 321.525C112.054 320.872 111.459 320.545 110.642 320.545C109.382 320.545 108.531 321.058 108.087 322.085C107.667 323.112 107.457 324.593 107.457 326.53V335H100.772V315.645H105.812L106.722 318.2H106.967C107.574 317.29 108.367 316.578 109.347 316.065C110.351 315.552 111.529 315.295 112.882 315.295ZM132.235 315.295C135.058 315.295 137.286 316.03 138.92 317.5C140.553 318.97 141.37 321.187 141.37 324.15V327.125H129.435C129.481 328.128 129.855 328.957 130.555 329.61C131.278 330.263 132.316 330.59 133.67 330.59C134.883 330.59 135.991 330.473 136.995 330.24C137.998 330.007 139.036 329.633 140.11 329.12V333.915C139.176 334.405 138.15 334.767 137.03 335C135.933 335.233 134.545 335.35 132.865 335.35C130.905 335.35 129.155 335.012 127.615 334.335C126.098 333.635 124.896 332.55 124.01 331.08C123.123 329.61 122.68 327.732 122.68 325.445C122.68 323.112 123.076 321.198 123.87 319.705C124.686 318.212 125.806 317.103 127.23 316.38C128.676 315.657 130.345 315.295 132.235 315.295ZM132.48 319.845C131.686 319.845 131.021 320.09 130.485 320.58C129.971 321.07 129.668 321.852 129.575 322.925H135.315C135.291 322.062 135.035 321.338 134.545 320.755C134.078 320.148 133.39 319.845 132.48 319.845ZM156.145 315.295C156.519 315.295 156.904 315.318 157.3 315.365C157.697 315.412 157.989 315.458 158.175 315.505L157.58 321.805C157.347 321.758 157.055 321.712 156.705 321.665C156.379 321.618 155.912 321.595 155.305 321.595C154.745 321.595 154.139 321.677 153.485 321.84C152.855 322.003 152.307 322.365 151.84 322.925C151.374 323.462 151.14 324.313 151.14 325.48V335H144.455V315.645H149.425L150.475 318.725H150.79C151.327 317.768 152.074 316.963 153.03 316.31C154.01 315.633 155.049 315.295 156.145 315.295ZM168.193 315.295C171.016 315.295 173.245 316.03 174.878 317.5C176.511 318.97 177.328 321.187 177.328 324.15V327.125H165.393C165.44 328.128 165.813 328.957 166.513 329.61C167.236 330.263 168.275 330.59 169.628 330.59C170.841 330.59 171.95 330.473 172.953 330.24C173.956 330.007 174.995 329.633 176.068 329.12V333.915C175.135 334.405 174.108 334.767 172.988 335C171.891 335.233 170.503 335.35 168.823 335.35C166.863 335.35 165.113 335.012 163.573 334.335C162.056 333.635 160.855 332.55 159.968 331.08C159.081 329.61 158.638 327.732 158.638 325.445C158.638 323.112 159.035 321.198 159.828 319.705C160.645 318.212 161.765 317.103 163.188 316.38C164.635 315.657 166.303 315.295 168.193 315.295ZM168.438 319.845C167.645 319.845 166.98 320.09 166.443 320.58C165.93 321.07 165.626 321.852 165.533 322.925H171.273C171.25 322.062 170.993 321.338 170.503 320.755C170.036 320.148 169.348 319.845 168.438 319.845ZM192.104 315.295C192.477 315.295 192.862 315.318 193.259 315.365C193.655 315.412 193.947 315.458 194.134 315.505L193.539 321.805C193.305 321.758 193.014 321.712 192.664 321.665C192.337 321.618 191.87 321.595 191.264 321.595C190.704 321.595 190.097 321.677 189.444 321.84C188.814 322.003 188.265 322.365 187.799 322.925C187.332 323.462 187.099 324.313 187.099 325.48V335H180.414V315.645H185.384L186.434 318.725H186.749C187.285 317.768 188.032 316.963 188.989 316.31C189.969 315.633 191.007 315.295 192.104 315.295ZM221.242 327.405C221.242 328.758 220.892 330.042 220.192 331.255C219.515 332.468 218.453 333.46 217.007 334.23C215.583 334.977 213.728 335.35 211.442 335.35C210.298 335.35 209.295 335.292 208.432 335.175C207.592 335.082 206.798 334.918 206.052 334.685C205.305 334.452 204.535 334.148 203.742 333.775V327.755C205.095 328.432 206.46 328.957 207.837 329.33C209.213 329.68 210.462 329.855 211.582 329.855C212.585 329.855 213.32 329.68 213.787 329.33C214.253 328.98 214.487 328.537 214.487 328C214.487 327.347 214.137 326.822 213.437 326.425C212.76 326.005 211.605 325.433 209.972 324.71C208.735 324.127 207.662 323.52 206.752 322.89C205.842 322.237 205.142 321.443 204.652 320.51C204.162 319.577 203.917 318.398 203.917 316.975C203.917 315.365 204.313 314.023 205.107 312.95C205.9 311.853 206.997 311.037 208.397 310.5C209.82 309.94 211.465 309.66 213.332 309.66C214.965 309.66 216.435 309.847 217.742 310.22C219.048 310.57 220.215 310.978 221.242 311.445L219.177 316.66C218.103 316.17 217.042 315.785 215.992 315.505C214.965 315.202 214.008 315.05 213.122 315.05C212.258 315.05 211.617 315.202 211.197 315.505C210.8 315.808 210.602 316.193 210.602 316.66C210.602 317.057 210.753 317.407 211.057 317.71C211.36 318.013 211.862 318.352 212.562 318.725C213.285 319.075 214.265 319.53 215.502 320.09C216.715 320.627 217.742 321.222 218.582 321.875C219.445 322.505 220.098 323.263 220.542 324.15C221.008 325.013 221.242 326.098 221.242 327.405ZM232.832 335.35C229.892 335.35 227.547 334.557 225.797 332.97C224.047 331.383 223.172 328.863 223.172 325.41C223.172 323.053 223.615 321.14 224.502 319.67C225.389 318.177 226.59 317.08 228.107 316.38C229.647 315.657 231.397 315.295 233.357 315.295C234.547 315.295 235.667 315.423 236.717 315.68C237.79 315.937 238.782 316.298 239.692 316.765L237.732 321.7C236.939 321.35 236.192 321.07 235.492 320.86C234.815 320.65 234.104 320.545 233.357 320.545C232.354 320.545 231.537 320.942 230.907 321.735C230.277 322.528 229.962 323.742 229.962 325.375C229.962 327.055 230.277 328.257 230.907 328.98C231.56 329.68 232.389 330.03 233.392 330.03C234.349 330.03 235.305 329.878 236.262 329.575C237.242 329.272 238.164 328.852 239.027 328.315V333.635C238.234 334.148 237.335 334.568 236.332 334.895C235.329 335.198 234.162 335.35 232.832 335.35ZM248.864 312.18C248.864 313.603 248.829 314.805 248.759 315.785C248.689 316.765 248.631 317.512 248.584 318.025H248.899C249.529 317.022 250.287 316.322 251.174 315.925C252.061 315.505 253.076 315.295 254.219 315.295C255.502 315.295 256.657 315.54 257.684 316.03C258.711 316.52 259.527 317.29 260.134 318.34C260.764 319.367 261.079 320.72 261.079 322.4V335H254.359V324.43C254.359 321.84 253.589 320.545 252.049 320.545C250.836 320.545 249.996 321.058 249.529 322.085C249.086 323.112 248.864 324.582 248.864 326.495V335H242.179V308.4H248.864V312.18ZM279.556 326.53C279.416 325.947 279.276 325.27 279.136 324.5C278.996 323.73 278.868 323.007 278.751 322.33C278.658 321.63 278.588 321.105 278.541 320.755H278.436C278.39 321.105 278.308 321.63 278.191 322.33C278.075 323.03 277.935 323.777 277.771 324.57C277.631 325.363 277.48 326.098 277.316 326.775L275.356 335H268.321L263.036 315.645H269.616L271.191 323.065C271.308 323.602 271.425 324.255 271.541 325.025C271.658 325.772 271.763 326.542 271.856 327.335C271.973 328.105 272.043 328.805 272.066 329.435H272.171C272.195 328.968 272.253 328.432 272.346 327.825C272.44 327.218 272.533 326.612 272.626 326.005C272.743 325.398 272.848 324.862 272.941 324.395C273.035 323.928 273.093 323.613 273.116 323.45L274.901 315.645H282.286L283.931 323.555C284.025 323.998 284.13 324.57 284.246 325.27C284.386 325.947 284.515 326.658 284.631 327.405C284.771 328.152 284.865 328.828 284.911 329.435H285.016C285.063 328.805 285.133 328.093 285.226 327.3C285.32 326.483 285.425 325.702 285.541 324.955C285.658 324.185 285.775 323.555 285.891 323.065L287.606 315.645H294.046L288.726 335H281.586L279.556 326.53ZM304.797 315.295C307.62 315.295 309.849 316.03 311.482 317.5C313.115 318.97 313.932 321.187 313.932 324.15V327.125H301.997C302.044 328.128 302.417 328.957 303.117 329.61C303.84 330.263 304.879 330.59 306.232 330.59C307.445 330.59 308.554 330.473 309.557 330.24C310.56 330.007 311.599 329.633 312.672 329.12V333.915C311.739 334.405 310.712 334.767 309.592 335C308.495 335.233 307.107 335.35 305.427 335.35C303.467 335.35 301.717 335.012 300.177 334.335C298.66 333.635 297.459 332.55 296.572 331.08C295.685 329.61 295.242 327.732 295.242 325.445C295.242 323.112 295.639 321.198 296.432 319.705C297.249 318.212 298.369 317.103 299.792 316.38C301.239 315.657 302.907 315.295 304.797 315.295ZM305.042 319.845C304.249 319.845 303.584 320.09 303.047 320.58C302.534 321.07 302.23 321.852 302.137 322.925H307.877C307.854 322.062 307.597 321.338 307.107 320.755C306.64 320.148 305.952 319.845 305.042 319.845ZM320.413 307.84C321.369 307.84 322.198 308.038 322.898 308.435C323.621 308.832 323.983 309.625 323.983 310.815C323.983 311.958 323.621 312.74 322.898 313.16C322.198 313.557 321.369 313.755 320.413 313.755C319.433 313.755 318.593 313.557 317.893 313.16C317.216 312.74 316.878 311.958 316.878 310.815C316.878 309.625 317.216 308.832 317.893 308.435C318.593 308.038 319.433 307.84 320.413 307.84ZM323.738 315.645V335H317.053V315.645H323.738ZM339.809 315.295C341.816 315.295 343.449 315.855 344.709 316.975C345.969 318.095 346.599 319.903 346.599 322.4V335H339.914V324.43C339.914 323.147 339.728 322.178 339.354 321.525C338.981 320.872 338.386 320.545 337.569 320.545C336.309 320.545 335.458 321.058 335.014 322.085C334.594 323.112 334.384 324.593 334.384 326.53V335H327.699V315.645H332.739L333.649 318.2H333.894C334.501 317.29 335.294 316.578 336.274 316.065C337.278 315.552 338.456 315.295 339.809 315.295ZM359.162 315.295C361.985 315.295 364.213 316.03 365.847 317.5C367.48 318.97 368.297 321.187 368.297 324.15V327.125H356.362C356.408 328.128 356.782 328.957 357.482 329.61C358.205 330.263 359.243 330.59 360.597 330.59C361.81 330.59 362.918 330.473 363.922 330.24C364.925 330.007 365.963 329.633 367.037 329.12V333.915C366.103 334.405 365.077 334.767 363.957 335C362.86 335.233 361.472 335.35 359.792 335.35C357.832 335.35 356.082 335.012 354.542 334.335C353.025 333.635 351.823 332.55 350.937 331.08C350.05 329.61 349.607 327.732 349.607 325.445C349.607 323.112 350.003 321.198 350.797 319.705C351.613 318.212 352.733 317.103 354.157 316.38C355.603 315.657 357.272 315.295 359.162 315.295ZM359.407 319.845C358.613 319.845 357.948 320.09 357.412 320.58C356.898 321.07 356.595 321.852 356.502 322.925H362.242C362.218 322.062 361.962 321.338 361.472 320.755C361.005 320.148 360.317 319.845 359.407 319.845ZM378.067 312.18C378.067 313.603 378.032 314.805 377.962 315.785C377.892 316.765 377.834 317.512 377.787 318.025H378.102C378.732 317.022 379.491 316.322 380.377 315.925C381.264 315.505 382.279 315.295 383.422 315.295C384.706 315.295 385.861 315.54 386.887 316.03C387.914 316.52 388.731 317.29 389.337 318.34C389.967 319.367 390.282 320.72 390.282 322.4V335H383.562V324.43C383.562 321.84 382.792 320.545 381.252 320.545C380.039 320.545 379.199 321.058 378.732 322.085C378.289 323.112 378.067 324.582 378.067 326.495V335H371.382V308.4H378.067V312.18ZM412.96 315.645V335H407.92L407.08 332.585H406.695C406.088 333.565 405.26 334.277 404.21 334.72C403.16 335.14 402.04 335.35 400.85 335.35C399.59 335.35 398.446 335.105 397.42 334.615C396.393 334.125 395.576 333.355 394.97 332.305C394.386 331.255 394.095 329.902 394.095 328.245V315.645H400.78V326.215C400.78 327.475 400.955 328.432 401.305 329.085C401.678 329.738 402.273 330.065 403.09 330.065C404.35 330.065 405.19 329.552 405.61 328.525C406.053 327.498 406.275 326.028 406.275 324.115V315.645H412.96ZM428.987 315.295C430.994 315.295 432.627 315.855 433.887 316.975C435.147 318.095 435.777 319.903 435.777 322.4V335H429.092V324.43C429.092 323.147 428.905 322.178 428.532 321.525C428.159 320.872 427.564 320.545 426.747 320.545C425.487 320.545 424.635 321.058 424.192 322.085C423.772 323.112 423.562 324.593 423.562 326.53V335H416.877V315.645H421.917L422.827 318.2H423.072C423.679 317.29 424.472 316.578 425.452 316.065C426.455 315.552 427.634 315.295 428.987 315.295ZM445.644 335.35C443.661 335.35 442.016 334.498 440.709 332.795C439.426 331.092 438.784 328.607 438.784 325.34C438.784 322.027 439.438 319.53 440.744 317.85C442.074 316.147 443.789 315.295 445.889 315.295C447.196 315.295 448.234 315.563 449.004 316.1C449.798 316.637 450.451 317.313 450.964 318.13H451.104C451.011 317.64 450.929 316.963 450.859 316.1C450.813 315.237 450.789 314.397 450.789 313.58V308.4H457.509V335H452.469L451.034 332.55H450.789C450.323 333.32 449.681 333.985 448.864 334.545C448.048 335.082 446.974 335.35 445.644 335.35ZM448.374 330.065C449.448 330.065 450.206 329.727 450.649 329.05C451.093 328.373 451.326 327.335 451.349 325.935V325.41C451.349 323.893 451.128 322.727 450.684 321.91C450.264 321.093 449.471 320.685 448.304 320.685C447.511 320.685 446.846 321.07 446.309 321.84C445.796 322.61 445.539 323.812 445.539 325.445C445.539 327.055 445.796 328.233 446.309 328.98C446.846 329.703 447.534 330.065 448.374 330.065Z" fill="black"/>
<path d="M485.98 333.48V313.8H490.9V315.68H488.62V331.6H490.9V333.48H485.98ZM504.768 313.08H508.008V331.96H504.768V313.08ZM497.788 314.34C500.668 314.34 502.808 316.94 502.808 321.14C502.808 325.34 500.668 327.94 497.788 327.94C494.908 327.94 492.768 325.34 492.768 321.14C492.768 316.94 494.908 314.34 497.788 314.34ZM497.788 317.28C496.628 317.28 495.868 318.5 495.868 321.14C495.868 323.78 496.628 325 497.788 325C498.948 325 499.708 323.78 499.708 321.14C499.708 318.5 498.948 317.28 497.788 317.28ZM514.466 315.08V324.94C516.606 324.88 518.906 324.66 521.266 324.22L521.586 326.84C518.566 327.46 515.566 327.62 512.906 327.62H511.246V315.08H514.466ZM523.006 313.12H526.246V331.98H523.006V321.3H518.366V318.72H523.006V313.12ZM531.885 322.38V325C533.445 324.96 534.925 324.86 536.545 324.58L536.805 327.18C534.525 327.58 532.485 327.64 530.145 327.64H528.765V319.88H532.245V317.38H528.745V314.86H535.365V322.38H531.885ZM537.645 319.34V313.4H540.625V331.06H537.645V321.94H536.045V319.34H537.645ZM541.465 313.12H544.525V331.88H541.465V313.12ZM566.993 319.62L565.753 322.22C562.373 321.74 560.193 320.26 558.993 318.36C557.793 320.26 555.613 321.74 552.233 322.22L550.993 319.62C555.773 318.96 557.273 316.4 557.273 314.42V313.62H560.713V314.42C560.713 316.4 562.213 318.96 566.993 319.62ZM567.473 323.28V325.82H563.933V331.92H560.713V325.82H557.353V331.92H554.133V325.82H550.493V323.28H567.473ZM575.072 325.1V321.38H572.152V325.1H575.072ZM575.072 318.9V314.54H578.272V327.64H568.952V314.54H572.152V318.9H575.072ZM585.852 319.9V322.54H583.332V331.9H580.092V313.14H583.332V319.9H585.852ZM598.93 313.08H602.17V331.96H598.93V313.08ZM591.95 314.34C594.83 314.34 596.97 316.94 596.97 321.14C596.97 325.34 594.83 327.94 591.95 327.94C589.07 327.94 586.93 325.34 586.93 321.14C586.93 316.94 589.07 314.34 591.95 314.34ZM591.95 317.28C590.79 317.28 590.03 318.5 590.03 321.14C590.03 323.78 590.79 325 591.95 325C593.11 325 593.87 323.78 593.87 321.14C593.87 318.5 593.11 317.28 591.95 317.28ZM608.269 314.8V324.82C609.789 324.78 611.169 324.66 612.649 324.36L613.049 327.04C610.909 327.48 608.909 327.56 606.469 327.56H605.089V314.8H608.269ZM613.709 318.84V313.4H616.709V331.12H613.709V321.42H610.309V318.84H613.709ZM617.689 313.12H620.749V331.88H617.689V313.12ZM638.647 314.54V316.94H623.227V314.54H629.347V313.1H632.587V314.54H638.647ZM634.067 320.16C634.067 319.66 633.227 319.52 630.967 319.52C628.707 319.52 627.867 319.66 627.867 320.16C627.867 320.66 628.707 320.8 630.967 320.8C633.227 320.8 634.067 320.66 634.067 320.16ZM624.547 320.16C624.547 318.3 626.887 317.3 630.967 317.3C635.047 317.3 637.387 318.3 637.387 320.16C637.387 322.04 635.047 323.04 630.967 323.04C626.887 323.04 624.547 322.04 624.547 320.16ZM627.567 327V329.16H637.607V331.62H624.327V327H627.567ZM622.467 323.6H639.467V326.06H632.867V328.06H629.627V326.06H622.467V323.6ZM655.746 322.54V325.06H642.366V314.38H655.626V316.92H645.666V318.46H655.166V320.92H645.666V322.54H655.746ZM640.486 327.3H657.486V329.88H640.486V327.3ZM658.864 333.48V331.6H661.144V315.68H658.864V313.8H663.784V333.48H658.864Z" fill="black"/>
<path d="M1293 312L1311 330L1329 312" stroke="black" stroke-width="6"/>
<path d="M84.905 450.98C84.905 453.873 84.3567 456.288 83.26 458.225C82.1867 460.162 80.67 461.608 78.71 462.565C76.75 463.522 74.44 464 71.78 464H63.695V439.01H72.34C76.3767 439.01 79.48 440.037 81.65 442.09C83.82 444.143 84.905 447.107 84.905 450.98ZM77.905 451.225C77.905 446.722 76.0733 444.47 72.41 444.47H70.45V458.47H71.955C74.0083 458.47 75.5133 457.875 76.47 456.685C77.4267 455.495 77.905 453.675 77.905 451.225ZM100.003 444.295C100.376 444.295 100.761 444.318 101.158 444.365C101.555 444.412 101.846 444.458 102.033 444.505L101.438 450.805C101.205 450.758 100.913 450.712 100.563 450.665C100.236 450.618 99.7698 450.595 99.1631 450.595C98.6031 450.595 97.9965 450.677 97.3431 450.84C96.7131 451.003 96.1648 451.365 95.6981 451.925C95.2315 452.462 94.9981 453.313 94.9981 454.48V464H88.3131V444.645H93.2831L94.3331 447.725H94.6481C95.1848 446.768 95.9315 445.963 96.8881 445.31C97.8681 444.633 98.9065 444.295 100.003 444.295ZM112.786 444.295C115.236 444.295 117.149 444.902 118.526 446.115C119.902 447.328 120.591 449.055 120.591 451.295V464H115.971L114.676 461.445H114.536C113.999 462.122 113.439 462.682 112.856 463.125C112.296 463.545 111.642 463.848 110.896 464.035C110.149 464.245 109.239 464.35 108.166 464.35C106.486 464.35 105.086 463.837 103.966 462.81C102.846 461.783 102.286 460.208 102.286 458.085C102.286 456.008 102.997 454.468 104.421 453.465C105.867 452.462 107.956 451.902 110.686 451.785L113.906 451.68V451.4C113.906 450.537 113.696 449.93 113.276 449.58C112.856 449.207 112.284 449.02 111.561 449.02C110.791 449.02 109.939 449.16 109.006 449.44C108.072 449.697 107.127 450.035 106.171 450.455L104.246 446.045C105.366 445.462 106.626 445.03 108.026 444.75C109.449 444.447 111.036 444.295 112.786 444.295ZM112.401 455.425C111.187 455.472 110.324 455.693 109.811 456.09C109.321 456.463 109.076 457 109.076 457.7C109.076 458.353 109.251 458.843 109.601 459.17C109.951 459.473 110.417 459.625 111.001 459.625C111.817 459.625 112.506 459.368 113.066 458.855C113.649 458.342 113.941 457.677 113.941 456.86V455.355L112.401 455.425ZM133.262 464.35C130.322 464.35 127.977 463.557 126.227 461.97C124.477 460.383 123.602 457.863 123.602 454.41C123.602 452.053 124.046 450.14 124.932 448.67C125.819 447.177 127.021 446.08 128.537 445.38C130.077 444.657 131.827 444.295 133.787 444.295C134.977 444.295 136.097 444.423 137.147 444.68C138.221 444.937 139.212 445.298 140.122 445.765L138.162 450.7C137.369 450.35 136.622 450.07 135.922 449.86C135.246 449.65 134.534 449.545 133.787 449.545C132.784 449.545 131.967 449.942 131.337 450.735C130.707 451.528 130.392 452.742 130.392 454.375C130.392 456.055 130.707 457.257 131.337 457.98C131.991 458.68 132.819 459.03 133.822 459.03C134.779 459.03 135.736 458.878 136.692 458.575C137.672 458.272 138.594 457.852 139.457 457.315V462.635C138.664 463.148 137.766 463.568 136.762 463.895C135.759 464.198 134.592 464.35 133.262 464.35ZM149.295 441.18C149.295 442.603 149.26 443.805 149.19 444.785C149.12 445.765 149.061 446.512 149.015 447.025H149.33C149.96 446.022 150.718 445.322 151.605 444.925C152.491 444.505 153.506 444.295 154.65 444.295C155.933 444.295 157.088 444.54 158.115 445.03C159.141 445.52 159.958 446.29 160.565 447.34C161.195 448.367 161.51 449.72 161.51 451.4V464H154.79V453.43C154.79 450.84 154.02 449.545 152.48 449.545C151.266 449.545 150.426 450.058 149.96 451.085C149.516 452.112 149.295 453.582 149.295 455.495V464H142.61V437.4H149.295V441.18ZM174.072 444.295C176.895 444.295 179.124 445.03 180.757 446.5C182.39 447.97 183.207 450.187 183.207 453.15V456.125H171.272C171.319 457.128 171.692 457.957 172.392 458.61C173.115 459.263 174.154 459.59 175.507 459.59C176.72 459.59 177.829 459.473 178.832 459.24C179.835 459.007 180.874 458.633 181.947 458.12V462.915C181.014 463.405 179.987 463.767 178.867 464C177.77 464.233 176.382 464.35 174.702 464.35C172.742 464.35 170.992 464.012 169.452 463.335C167.935 462.635 166.734 461.55 165.847 460.08C164.96 458.61 164.517 456.732 164.517 454.445C164.517 452.112 164.914 450.198 165.707 448.705C166.524 447.212 167.644 446.103 169.067 445.38C170.514 444.657 172.182 444.295 174.072 444.295ZM174.317 448.845C173.524 448.845 172.859 449.09 172.322 449.58C171.809 450.07 171.505 450.852 171.412 451.925H177.152C177.129 451.062 176.872 450.338 176.382 449.755C175.915 449.148 175.227 448.845 174.317 448.845ZM198.403 444.295C200.409 444.295 202.043 444.855 203.303 445.975C204.563 447.095 205.193 448.903 205.193 451.4V464H198.508V453.43C198.508 452.147 198.321 451.178 197.948 450.525C197.574 449.872 196.979 449.545 196.163 449.545C194.903 449.545 194.051 450.058 193.608 451.085C193.188 452.112 192.978 453.593 192.978 455.53V464H186.293V444.645H191.333L192.243 447.2H192.488C193.094 446.29 193.888 445.578 194.868 445.065C195.871 444.552 197.049 444.295 198.403 444.295ZM220.87 449.65H216.74V464H210.055V449.65H207.5V446.36L210.195 444.715V444.4C210.195 441.903 210.708 440.083 211.735 438.94C212.762 437.797 214.442 437.225 216.775 437.225C217.778 437.225 218.688 437.307 219.505 437.47C220.322 437.61 221.173 437.832 222.06 438.135L220.625 442.475C220.298 442.382 219.925 442.3 219.505 442.23C219.108 442.16 218.677 442.125 218.21 442.125C217.23 442.125 216.74 442.79 216.74 444.12V444.645H220.87V449.65ZM241.628 444.645V464H236.588L235.748 461.585H235.363C234.756 462.565 233.928 463.277 232.878 463.72C231.828 464.14 230.708 464.35 229.518 464.35C228.258 464.35 227.115 464.105 226.088 463.615C225.061 463.125 224.245 462.355 223.638 461.305C223.055 460.255 222.763 458.902 222.763 457.245V444.645H229.448V455.215C229.448 456.475 229.623 457.432 229.973 458.085C230.346 458.738 230.941 459.065 231.758 459.065C233.018 459.065 233.858 458.552 234.278 457.525C234.721 456.498 234.943 455.028 234.943 453.115V444.645H241.628ZM255.03 459.065C255.637 459.065 256.185 459.007 256.675 458.89C257.188 458.75 257.713 458.587 258.25 458.4V463.265C257.527 463.568 256.757 463.825 255.94 464.035C255.123 464.245 254.085 464.35 252.825 464.35C251.565 464.35 250.457 464.152 249.5 463.755C248.567 463.358 247.832 462.682 247.295 461.725C246.758 460.745 246.49 459.38 246.49 457.63V449.65H244.145V446.92L247.12 444.82L248.835 440.76H253.21V444.645H257.97V449.65H253.21V457.175C253.21 458.435 253.817 459.065 255.03 459.065ZM270.429 459.065C271.035 459.065 271.584 459.007 272.074 458.89C272.587 458.75 273.112 458.587 273.649 458.4V463.265C272.925 463.568 272.155 463.825 271.339 464.035C270.522 464.245 269.484 464.35 268.224 464.35C266.964 464.35 265.855 464.152 264.899 463.755C263.965 463.358 263.23 462.682 262.694 461.725C262.157 460.745 261.889 459.38 261.889 457.63V449.65H259.544V446.92L262.519 444.82L264.234 440.76H268.609V444.645H273.369V449.65H268.609V457.175C268.609 458.435 269.215 459.065 270.429 459.065ZM285.057 444.295C287.881 444.295 290.109 445.03 291.742 446.5C293.376 447.97 294.192 450.187 294.192 453.15V456.125H282.257C282.304 457.128 282.677 457.957 283.377 458.61C284.101 459.263 285.139 459.59 286.492 459.59C287.706 459.59 288.814 459.473 289.817 459.24C290.821 459.007 291.859 458.633 292.932 458.12V462.915C291.999 463.405 290.972 463.767 289.852 464C288.756 464.233 287.367 464.35 285.687 464.35C283.727 464.35 281.977 464.012 280.437 463.335C278.921 462.635 277.719 461.55 276.832 460.08C275.946 458.61 275.502 456.732 275.502 454.445C275.502 452.112 275.899 450.198 276.692 448.705C277.509 447.212 278.629 446.103 280.052 445.38C281.499 444.657 283.167 444.295 285.057 444.295ZM285.302 448.845C284.509 448.845 283.844 449.09 283.307 449.58C282.794 450.07 282.491 450.852 282.397 451.925H288.137C288.114 451.062 287.857 450.338 287.367 449.755C286.901 449.148 286.212 448.845 285.302 448.845ZM308.968 444.295C309.342 444.295 309.727 444.318 310.123 444.365C310.52 444.412 310.812 444.458 310.998 444.505L310.403 450.805C310.17 450.758 309.878 450.712 309.528 450.665C309.202 450.618 308.735 450.595 308.128 450.595C307.568 450.595 306.962 450.677 306.308 450.84C305.678 451.003 305.13 451.365 304.663 451.925C304.197 452.462 303.963 453.313 303.963 454.48V464H297.278V444.645H302.248L303.298 447.725H303.613C304.15 446.768 304.897 445.963 305.853 445.31C306.833 444.633 307.872 444.295 308.968 444.295Z" fill="black"/>
<path d="M337.98 462.48V442.8H342.9V444.68H340.62V460.6H342.9V462.48H337.98ZM359.588 450.6V453.14H346.208V443.56H359.468V446.14H349.428V450.6H359.588ZM344.328 456.18H361.328V458.78H344.328V456.18ZM366.286 451.18V454.04C368.606 454.02 370.686 453.88 372.906 453.5L373.206 456.1C370.426 456.58 367.806 456.68 364.706 456.68H363.086V448.66H368.586V446.16H363.066V443.62H371.786V451.18H366.286ZM379.686 449V451.64H377.206V460.96H373.966V442.1H377.206V449H379.686ZM396.405 442.14V456.44H393.345V442.14H396.405ZM388.485 447.66H389.685V442.44H392.685V456.1H389.685V450.24H388.485V447.66ZM388.845 443.9V446.36H380.225V443.9H382.945V442.32H386.125V443.9H388.845ZM383.465 450.44C383.465 451.28 383.925 451.68 384.565 451.68C385.205 451.68 385.665 451.28 385.665 450.44C385.665 449.62 385.205 449.22 384.565 449.22C383.925 449.22 383.465 449.62 383.465 450.44ZM388.485 450.44C388.485 452.56 386.805 454.1 384.565 454.1C382.325 454.1 380.645 452.56 380.645 450.44C380.645 448.32 382.325 446.78 384.565 446.78C386.805 446.78 388.485 448.32 388.485 450.44ZM386.785 458.08H396.805V460.62H383.545V454.98H386.785V458.08ZM408.523 449.14V445.38H405.163V449.14H408.523ZM401.943 449.14V445.38H399.783V442.84H413.903V445.38H411.743V449.14H413.703V451.68H399.963V449.14H401.943ZM415.283 452.9L415.303 455.48H408.423V460.9H405.183V455.48H398.303V452.9H415.283ZM420.362 451.3V454.26C422.522 454.24 424.462 454.14 426.602 453.82L426.862 456.38C424.142 456.78 421.662 456.82 418.722 456.82H417.142V443.6H425.842V446.18H420.362V448.8H425.302V451.3H420.362ZM429.002 442.1H432.242V460.94H429.002V451.04H426.142V448.46H429.002V442.1ZM434.7 462.48V460.6H436.98V444.68H434.7V442.8H439.62V462.48H434.7Z" fill="black"/>
<path d="M1293 441L1311 459L1329 441" stroke="black" stroke-width="6"/>
<path d="M85.045 590H77.415L72.48 580.445L70.485 581.635V590H63.695V565.01H70.485V575.86C70.765 575.323 71.0917 574.787 71.465 574.25C71.8383 573.69 72.2 573.165 72.55 572.675L77.8 565.01H85.185L77.31 576.21L85.045 590ZM105.468 570.645V590H100.428L99.5883 587.585H99.2033C98.5967 588.565 97.7683 589.277 96.7183 589.72C95.6683 590.14 94.5483 590.35 93.3583 590.35C92.0983 590.35 90.955 590.105 89.9283 589.615C88.9017 589.125 88.085 588.355 87.4783 587.305C86.895 586.255 86.6033 584.902 86.6033 583.245V570.645H93.2883V581.215C93.2883 582.475 93.4633 583.432 93.8133 584.085C94.1867 584.738 94.7817 585.065 95.5983 585.065C96.8583 585.065 97.6983 584.552 98.1183 583.525C98.5617 582.498 98.7833 581.028 98.7833 579.115V570.645H105.468ZM133.011 570.295C135.227 570.295 136.919 570.855 138.086 571.975C139.252 573.095 139.836 574.903 139.836 577.4V590H133.151V579.465C133.151 577.995 132.952 576.98 132.556 576.42C132.159 575.837 131.576 575.545 130.806 575.545C129.732 575.545 128.986 576.023 128.566 576.98C128.146 577.913 127.936 579.243 127.936 580.97V590H121.251V579.465C121.251 578.065 121.064 577.062 120.691 576.455C120.317 575.848 119.757 575.545 119.011 575.545C117.867 575.545 117.086 576.058 116.666 577.085C116.269 578.112 116.071 579.593 116.071 581.53V590H109.386V570.645H114.426L115.406 573.025H115.581C116.094 572.232 116.829 571.578 117.786 571.065C118.766 570.552 119.967 570.295 121.391 570.295C122.814 570.295 123.981 570.54 124.891 571.03C125.824 571.497 126.582 572.15 127.166 572.99H127.376C127.982 572.127 128.764 571.462 129.721 570.995C130.701 570.528 131.797 570.295 133.011 570.295ZM167.311 570.295C169.527 570.295 171.219 570.855 172.386 571.975C173.552 573.095 174.136 574.903 174.136 577.4V590H167.451V579.465C167.451 577.995 167.252 576.98 166.856 576.42C166.459 575.837 165.876 575.545 165.106 575.545C164.032 575.545 163.286 576.023 162.866 576.98C162.446 577.913 162.236 579.243 162.236 580.97V590H155.551V579.465C155.551 578.065 155.364 577.062 154.991 576.455C154.617 575.848 154.057 575.545 153.311 575.545C152.167 575.545 151.386 576.058 150.966 577.085C150.569 578.112 150.371 579.593 150.371 581.53V590H143.686V570.645H148.726L149.706 573.025H149.881C150.394 572.232 151.129 571.578 152.086 571.065C153.066 570.552 154.267 570.295 155.691 570.295C157.114 570.295 158.281 570.54 159.191 571.03C160.124 571.497 160.882 572.15 161.466 572.99H161.676C162.282 572.127 163.064 571.462 164.021 570.995C165.001 570.528 166.097 570.295 167.311 570.295ZM186.701 570.295C189.524 570.295 191.752 571.03 193.386 572.5C195.019 573.97 195.836 576.187 195.836 579.15V582.125H183.901C183.947 583.128 184.321 583.957 185.021 584.61C185.744 585.263 186.782 585.59 188.136 585.59C189.349 585.59 190.457 585.473 191.461 585.24C192.464 585.007 193.502 584.633 194.576 584.12V588.915C193.642 589.405 192.616 589.767 191.496 590C190.399 590.233 189.011 590.35 187.331 590.35C185.371 590.35 183.621 590.012 182.081 589.335C180.564 588.635 179.362 587.55 178.476 586.08C177.589 584.61 177.146 582.732 177.146 580.445C177.146 578.112 177.542 576.198 178.336 574.705C179.152 573.212 180.272 572.103 181.696 571.38C183.142 570.657 184.811 570.295 186.701 570.295ZM186.946 574.845C186.152 574.845 185.487 575.09 184.951 575.58C184.437 576.07 184.134 576.852 184.041 577.925H189.781C189.757 577.062 189.501 576.338 189.011 575.755C188.544 575.148 187.856 574.845 186.946 574.845ZM210.611 570.295C210.985 570.295 211.37 570.318 211.766 570.365C212.163 570.412 212.455 570.458 212.641 570.505L212.046 576.805C211.813 576.758 211.521 576.712 211.171 576.665C210.845 576.618 210.378 576.595 209.771 576.595C209.211 576.595 208.605 576.677 207.951 576.84C207.321 577.003 206.773 577.365 206.306 577.925C205.84 578.462 205.606 579.313 205.606 580.48V590H198.921V570.645H203.891L204.941 573.725H205.256C205.793 572.768 206.54 571.963 207.496 571.31C208.476 570.633 209.515 570.295 210.611 570.295ZM229.013 584.05C229.013 585.263 228.733 586.348 228.173 587.305C227.636 588.262 226.761 589.008 225.548 589.545C224.358 590.082 222.783 590.35 220.823 590.35C219.446 590.35 218.209 590.268 217.113 590.105C216.039 589.965 214.943 589.685 213.823 589.265V583.91C215.059 584.47 216.308 584.878 217.568 585.135C218.828 585.368 219.819 585.485 220.543 585.485C221.989 585.485 222.713 585.158 222.713 584.505C222.713 584.225 222.596 583.98 222.363 583.77C222.129 583.56 221.709 583.327 221.103 583.07C220.519 582.813 219.679 582.463 218.583 582.02C216.973 581.343 215.771 580.573 214.978 579.71C214.184 578.823 213.788 577.587 213.788 576C213.788 574.11 214.511 572.687 215.958 571.73C217.428 570.773 219.364 570.295 221.768 570.295C223.051 570.295 224.253 570.435 225.373 570.715C226.493 570.995 227.659 571.403 228.873 571.94L227.053 576.245C226.096 575.802 225.128 575.452 224.148 575.195C223.168 574.938 222.386 574.81 221.803 574.81C220.706 574.81 220.158 575.078 220.158 575.615C220.158 575.848 220.251 576.058 220.438 576.245C220.648 576.432 221.033 576.642 221.593 576.875C222.153 577.108 222.969 577.447 224.043 577.89C225.163 578.333 226.084 578.823 226.808 579.36C227.554 579.873 228.103 580.503 228.453 581.25C228.826 581.973 229.013 582.907 229.013 584.05ZM243.839 570.295C245.985 570.295 247.665 571.158 248.879 572.885C250.092 574.588 250.699 577.05 250.699 580.27C250.699 582.463 250.384 584.318 249.754 585.835C249.147 587.328 248.307 588.46 247.234 589.23C246.184 589.977 244.982 590.35 243.629 590.35C242.275 590.35 241.214 590.105 240.444 589.615C239.697 589.125 239.114 588.623 238.694 588.11H238.484C238.53 588.553 238.577 589.032 238.624 589.545C238.67 590.058 238.694 590.653 238.694 591.33V598.4H232.009V570.645H237.434L238.379 573.095H238.694C239.16 572.348 239.79 571.695 240.584 571.135C241.4 570.575 242.485 570.295 243.839 570.295ZM241.319 575.545C240.339 575.545 239.662 575.895 239.289 576.595C238.939 577.295 238.74 578.333 238.694 579.71V580.235C238.694 581.775 238.88 582.953 239.254 583.77C239.627 584.563 240.327 584.96 241.354 584.96C242.194 584.96 242.824 584.598 243.244 583.875C243.687 583.128 243.909 581.903 243.909 580.2C243.909 578.497 243.687 577.295 243.244 576.595C242.8 575.895 242.159 575.545 241.319 575.545ZM262.514 570.295C265.337 570.295 267.566 571.03 269.199 572.5C270.832 573.97 271.649 576.187 271.649 579.15V582.125H259.714C259.761 583.128 260.134 583.957 260.834 584.61C261.557 585.263 262.596 585.59 263.949 585.59C265.162 585.59 266.271 585.473 267.274 585.24C268.277 585.007 269.316 584.633 270.389 584.12V588.915C269.456 589.405 268.429 589.767 267.309 590C266.212 590.233 264.824 590.35 263.144 590.35C261.184 590.35 259.434 590.012 257.894 589.335C256.377 588.635 255.176 587.55 254.289 586.08C253.402 584.61 252.959 582.732 252.959 580.445C252.959 578.112 253.356 576.198 254.149 574.705C254.966 573.212 256.086 572.103 257.509 571.38C258.956 570.657 260.624 570.295 262.514 570.295ZM262.759 574.845C261.966 574.845 261.301 575.09 260.764 575.58C260.251 576.07 259.947 576.852 259.854 577.925H265.594C265.571 577.062 265.314 576.338 264.824 575.755C264.357 575.148 263.669 574.845 262.759 574.845ZM283.555 590.35C280.615 590.35 278.27 589.557 276.52 587.97C274.77 586.383 273.895 583.863 273.895 580.41C273.895 578.053 274.338 576.14 275.225 574.67C276.111 573.177 277.313 572.08 278.83 571.38C280.37 570.657 282.12 570.295 284.08 570.295C285.27 570.295 286.39 570.423 287.44 570.68C288.513 570.937 289.505 571.298 290.415 571.765L288.455 576.7C287.661 576.35 286.915 576.07 286.215 575.86C285.538 575.65 284.826 575.545 284.08 575.545C283.076 575.545 282.26 575.942 281.63 576.735C281 577.528 280.685 578.742 280.685 580.375C280.685 582.055 281 583.257 281.63 583.98C282.283 584.68 283.111 585.03 284.115 585.03C285.071 585.03 286.028 584.878 286.985 584.575C287.965 584.272 288.886 583.852 289.75 583.315V588.635C288.956 589.148 288.058 589.568 287.055 589.895C286.051 590.198 284.885 590.35 283.555 590.35ZM299.622 573.865C299.622 574.658 299.587 575.533 299.517 576.49C299.447 577.447 299.353 578.322 299.237 579.115H299.377C299.633 578.718 299.96 578.217 300.357 577.61C300.777 577.003 301.138 576.502 301.442 576.105L305.782 570.645H313.237L306.517 578.87L313.657 590H306.027L301.792 583.07L299.622 584.715V590H292.902V563.4H299.622V573.865Z" fill="black"/>
<path d="M339.98 588.48V568.8H344.9V570.68H342.62V586.6H344.9V588.48H339.98ZM363.308 577.94V580.52H356.408V586.86H353.168V580.52H346.328V577.94H357.828C358.008 577.12 358.148 576.38 358.228 575.66L347.908 576.18L347.568 573.48L358.448 573.18C358.468 572.62 358.488 572.12 358.488 571.62H348.208V569.08H361.608V570.76C361.608 572.72 361.608 574.88 361.008 577.94H363.308ZM370.966 579.92V572.16H368.146V579.92H370.966ZM377.006 568.1H380.246V586.94H377.006V576.94H374.146V582.42H364.966V569.66H374.146V574.38H377.006V568.1ZM398.825 574.62L397.585 577.22C394.205 576.74 392.025 575.26 390.825 573.36C389.625 575.26 387.445 576.74 384.065 577.22L382.825 574.62C387.605 573.96 389.105 571.4 389.105 569.42V568.62H392.545V569.42C392.545 571.4 394.045 573.96 398.825 574.62ZM399.305 578.28V580.82H395.765V586.92H392.545V580.82H389.185V586.92H385.965V580.82H382.325V578.28H399.305ZM408.543 572.92H409.863V568.36H412.863V579.66H409.863V575.5H408.543V572.92ZM404.223 572.02V576.72L405.063 576.68V572.02H404.223ZM409.143 576.38L409.323 578.72C406.503 579.28 402.803 579.34 400.443 579.34L400.123 576.76H401.343V572.02H400.423V569.48H408.943V572.02H407.943V576.52C408.343 576.48 408.763 576.44 409.143 576.38ZM403.123 582.92V580.4H416.523V586.9H413.283V582.92H403.123ZM413.463 568.14H416.523V579.72H413.463V568.14ZM418.702 588.48V586.6H420.982V570.68H418.702V568.8H423.622V588.48H418.702Z" fill="black"/>
<path d="M1293 570L1311 588L1329 570" stroke="black" stroke-width="6"/>
<path d="M96.84 697.01L90.68 722H82.7L80.32 711.115C80.2733 710.905 80.2033 710.555 80.11 710.065C80.0167 709.575 79.9 709.015 79.76 708.385C79.6433 707.755 79.5383 707.137 79.445 706.53C79.3517 705.923 79.2817 705.41 79.235 704.99C79.1883 705.41 79.1067 705.923 78.99 706.53C78.8967 707.137 78.7917 707.755 78.675 708.385C78.5583 709.015 78.4417 709.575 78.325 710.065C78.2317 710.555 78.1617 710.905 78.115 711.115L75.7 722H67.72L61.525 697.01H68.035L70.765 709.54C70.835 709.843 70.9283 710.287 71.045 710.87C71.1617 711.43 71.2783 712.037 71.395 712.69C71.535 713.343 71.6633 713.985 71.78 714.615C71.8967 715.222 71.9783 715.735 72.025 716.155C72.1183 715.455 72.235 714.65 72.375 713.74C72.5383 712.83 72.7133 711.92 72.9 711.01C73.0867 710.077 73.2617 709.213 73.425 708.42C73.6117 707.627 73.7633 706.973 73.88 706.46L76.085 697.01H82.35L84.485 706.46C84.6017 706.95 84.7417 707.603 84.905 708.42C85.0917 709.213 85.2783 710.077 85.465 711.01C85.6517 711.943 85.8267 712.865 85.99 713.775C86.1533 714.685 86.27 715.478 86.34 716.155C86.41 715.572 86.5267 714.848 86.69 713.985C86.8533 713.122 87.0167 712.282 87.18 711.465C87.3433 710.625 87.4717 709.995 87.565 709.575L90.33 697.01H96.84ZM107.009 702.295C109.832 702.295 112.06 703.03 113.694 704.5C115.327 705.97 116.144 708.187 116.144 711.15V714.125H104.209C104.255 715.128 104.629 715.957 105.329 716.61C106.052 717.263 107.09 717.59 108.444 717.59C109.657 717.59 110.765 717.473 111.769 717.24C112.772 717.007 113.81 716.633 114.884 716.12V720.915C113.95 721.405 112.924 721.767 111.804 722C110.707 722.233 109.319 722.35 107.639 722.35C105.679 722.35 103.929 722.012 102.389 721.335C100.872 720.635 99.6703 719.55 98.7836 718.08C97.8969 716.61 97.4536 714.732 97.4536 712.445C97.4536 710.112 97.8503 708.198 98.6436 706.705C99.4603 705.212 100.58 704.103 102.004 703.38C103.45 702.657 105.119 702.295 107.009 702.295ZM107.254 706.845C106.46 706.845 105.795 707.09 105.259 707.58C104.745 708.07 104.442 708.852 104.349 709.925H110.089C110.065 709.062 109.809 708.338 109.319 707.755C108.852 707.148 108.164 706.845 107.254 706.845ZM122.624 694.84C123.581 694.84 124.409 695.038 125.109 695.435C125.833 695.832 126.194 696.625 126.194 697.815C126.194 698.958 125.833 699.74 125.109 700.16C124.409 700.557 123.581 700.755 122.624 700.755C121.644 700.755 120.804 700.557 120.104 700.16C119.428 699.74 119.089 698.958 119.089 697.815C119.089 696.625 119.428 695.832 120.104 695.435C120.804 695.038 121.644 694.84 122.624 694.84ZM125.949 702.645V722H119.264V702.645H125.949ZM138.731 722.35C135.791 722.35 133.446 721.557 131.696 719.97C129.946 718.383 129.071 715.863 129.071 712.41C129.071 710.053 129.515 708.14 130.401 706.67C131.288 705.177 132.49 704.08 134.006 703.38C135.546 702.657 137.296 702.295 139.256 702.295C140.446 702.295 141.566 702.423 142.616 702.68C143.69 702.937 144.681 703.298 145.591 703.765L143.631 708.7C142.838 708.35 142.091 708.07 141.391 707.86C140.715 707.65 140.003 707.545 139.256 707.545C138.253 707.545 137.436 707.942 136.806 708.735C136.176 709.528 135.861 710.742 135.861 712.375C135.861 714.055 136.176 715.257 136.806 715.98C137.46 716.68 138.288 717.03 139.291 717.03C140.248 717.03 141.205 716.878 142.161 716.575C143.141 716.272 144.063 715.852 144.926 715.315V720.635C144.133 721.148 143.235 721.568 142.231 721.895C141.228 722.198 140.061 722.35 138.731 722.35ZM154.763 699.18C154.763 700.603 154.728 701.805 154.658 702.785C154.588 703.765 154.53 704.512 154.483 705.025H154.798C155.428 704.022 156.187 703.322 157.073 702.925C157.96 702.505 158.975 702.295 160.118 702.295C161.402 702.295 162.557 702.54 163.583 703.03C164.61 703.52 165.427 704.29 166.033 705.34C166.663 706.367 166.978 707.72 166.978 709.4V722H160.258V711.43C160.258 708.84 159.488 707.545 157.948 707.545C156.735 707.545 155.895 708.058 155.428 709.085C154.985 710.112 154.763 711.582 154.763 713.495V722H148.078V695.4H154.763V699.18ZM179.541 702.295C182.364 702.295 184.592 703.03 186.226 704.5C187.859 705.97 188.676 708.187 188.676 711.15V714.125H176.741C176.787 715.128 177.161 715.957 177.861 716.61C178.584 717.263 179.622 717.59 180.976 717.59C182.189 717.59 183.297 717.473 184.301 717.24C185.304 717.007 186.342 716.633 187.416 716.12V720.915C186.482 721.405 185.456 721.767 184.336 722C183.239 722.233 181.851 722.35 180.171 722.35C178.211 722.35 176.461 722.012 174.921 721.335C173.404 720.635 172.202 719.55 171.316 718.08C170.429 716.61 169.986 714.732 169.986 712.445C169.986 710.112 170.382 708.198 171.176 706.705C171.992 705.212 173.112 704.103 174.536 703.38C175.982 702.657 177.651 702.295 179.541 702.295ZM179.786 706.845C178.992 706.845 178.327 707.09 177.791 707.58C177.277 708.07 176.974 708.852 176.881 709.925H182.621C182.597 709.062 182.341 708.338 181.851 707.755C181.384 707.148 180.696 706.845 179.786 706.845ZM195.156 694.84C196.113 694.84 196.941 695.038 197.641 695.435C198.365 695.832 198.726 696.625 198.726 697.815C198.726 698.958 198.365 699.74 197.641 700.16C196.941 700.557 196.113 700.755 195.156 700.755C194.176 700.755 193.336 700.557 192.636 700.16C191.96 699.74 191.621 698.958 191.621 697.815C191.621 696.625 191.96 695.832 192.636 695.435C193.336 695.038 194.176 694.84 195.156 694.84ZM198.481 702.645V722H191.796V702.645H198.481Z" fill="black"/>
<path d="M226.98 720.48V700.8H231.9V702.68H229.62V718.6H231.9V720.48H226.98ZM237.328 706.04V707.8H240.488V706.04H237.328ZM240.548 710.32V712.86C241.808 712.78 243.048 712.68 244.248 712.52L244.508 714.84C240.628 715.6 236.568 715.58 233.488 715.56L233.108 712.98C234.368 712.98 235.808 712.98 237.308 712.96V710.32H234.128V701.6H237.328V703.6H240.488V701.6H243.688V710.32H240.548ZM250.548 707.44V710.08H248.348V718.88H245.108V700.12H248.348V707.44H250.548ZM263.766 700.08H267.006V718.96H263.766V700.08ZM256.786 701.34C259.666 701.34 261.806 703.94 261.806 708.14C261.806 712.34 259.666 714.94 256.786 714.94C253.906 714.94 251.766 712.34 251.766 708.14C251.766 703.94 253.906 701.34 256.786 701.34ZM256.786 704.28C255.626 704.28 254.866 705.5 254.866 708.14C254.866 710.78 255.626 712 256.786 712C257.946 712 258.706 710.78 258.706 708.14C258.706 705.5 257.946 704.28 256.786 704.28ZM275.225 712.64C276.305 712.64 277.045 711.98 277.045 710.68C277.045 709.38 276.305 708.72 275.225 708.72C274.165 708.72 273.445 709.38 273.445 710.68C273.445 711.98 274.165 712.64 275.225 712.64ZM275.225 706.12C278.045 706.12 280.145 708.02 280.145 710.68C280.145 713.34 278.045 715.24 275.225 715.24C272.445 715.24 270.345 713.34 270.345 710.68C270.345 708.02 272.445 706.12 275.225 706.12ZM276.845 700.44V702.82H280.745V705.36H269.705V702.82H273.605V700.44H276.845ZM281.765 700.12H285.005V718.86H281.765V700.12ZM292.343 712C293.523 712 294.283 710.78 294.283 708.14C294.283 705.5 293.523 704.28 292.343 704.28C291.183 704.28 290.423 705.5 290.423 708.14C290.423 710.78 291.183 712 292.343 712ZM292.343 701.34C295.243 701.34 297.403 703.94 297.403 708.14C297.403 712.34 295.243 714.94 292.343 714.94C289.463 714.94 287.303 712.34 287.303 708.14C287.303 703.94 289.463 701.34 292.343 701.34ZM304.683 706.98V709.62H302.163V718.9H298.923V700.12H302.163V706.98H304.683ZM317.762 700.08H321.002V718.96H317.762V700.08ZM310.782 701.34C313.662 701.34 315.802 703.94 315.802 708.14C315.802 712.34 313.662 714.94 310.782 714.94C307.902 714.94 305.762 712.34 305.762 708.14C305.762 703.94 307.902 701.34 310.782 701.34ZM310.782 704.28C309.622 704.28 308.862 705.5 308.862 708.14C308.862 710.78 309.622 712 310.782 712C311.942 712 312.702 710.78 312.702 708.14C312.702 705.5 311.942 704.28 310.782 704.28ZM323.7 720.48V718.6H325.98V702.68H323.7V700.8H328.62V720.48H323.7Z" fill="black"/>
<path d="M1293 699L1311 717L1329 699" stroke="black" stroke-width="6"/>
<path d="M87.075 838.47C87.075 841.06 86.655 843.323 85.815 845.26C84.9983 847.173 83.6917 848.667 81.895 849.74C80.1217 850.813 77.8 851.35 74.93 851.35C72.13 851.35 69.8317 850.813 68.035 849.74C66.2383 848.667 64.9083 847.162 64.045 845.225C63.205 843.288 62.785 841.025 62.785 838.435C62.785 835.845 63.2167 833.593 64.08 831.68C64.9433 829.743 66.2733 828.25 68.07 827.2C69.8667 826.15 72.165 825.625 74.965 825.625C77.8117 825.625 80.1217 826.162 81.895 827.235C83.6917 828.285 84.9983 829.778 85.815 831.715C86.655 833.628 87.075 835.88 87.075 838.47ZM69.89 838.47C69.89 840.733 70.275 842.507 71.045 843.79C71.8383 845.073 73.1333 845.715 74.93 845.715C76.7967 845.715 78.1033 845.073 78.85 843.79C79.5967 842.507 79.97 840.733 79.97 838.47C79.97 836.207 79.5967 834.422 78.85 833.115C78.1033 831.808 76.8083 831.155 74.965 831.155C73.1217 831.155 71.815 831.808 71.045 833.115C70.275 834.422 69.89 836.207 69.89 838.47ZM97.1856 828.18C97.1856 829.603 97.1506 830.805 97.0806 831.785C97.0106 832.765 96.9523 833.512 96.9056 834.025H97.2206C97.8506 833.022 98.609 832.322 99.4956 831.925C100.382 831.505 101.397 831.295 102.541 831.295C103.824 831.295 104.979 831.54 106.006 832.03C107.032 832.52 107.849 833.29 108.456 834.34C109.086 835.367 109.401 836.72 109.401 838.4V851H102.681V840.43C102.681 837.84 101.911 836.545 100.371 836.545C99.1573 836.545 98.3173 837.058 97.8506 838.085C97.4073 839.112 97.1856 840.582 97.1856 842.495V851H90.5006V824.4H97.1856V828.18ZM127.878 842.53C127.738 841.947 127.598 841.27 127.458 840.5C127.318 839.73 127.19 839.007 127.073 838.33C126.98 837.63 126.91 837.105 126.863 836.755H126.758C126.711 837.105 126.63 837.63 126.513 838.33C126.396 839.03 126.256 839.777 126.093 840.57C125.953 841.363 125.801 842.098 125.638 842.775L123.678 851H116.643L111.358 831.645H117.938L119.513 839.065C119.63 839.602 119.746 840.255 119.863 841.025C119.98 841.772 120.085 842.542 120.178 843.335C120.295 844.105 120.365 844.805 120.388 845.435H120.493C120.516 844.968 120.575 844.432 120.668 843.825C120.761 843.218 120.855 842.612 120.948 842.005C121.065 841.398 121.17 840.862 121.263 840.395C121.356 839.928 121.415 839.613 121.438 839.45L123.223 831.645H130.608L132.253 839.555C132.346 839.998 132.451 840.57 132.568 841.27C132.708 841.947 132.836 842.658 132.953 843.405C133.093 844.152 133.186 844.828 133.233 845.435H133.338C133.385 844.805 133.455 844.093 133.548 843.3C133.641 842.483 133.746 841.702 133.863 840.955C133.98 840.185 134.096 839.555 134.213 839.065L135.928 831.645H142.368L137.048 851H129.908L127.878 842.53ZM163.233 831.645V851H158.193L157.353 848.585H156.968C156.362 849.565 155.533 850.277 154.483 850.72C153.433 851.14 152.313 851.35 151.123 851.35C149.863 851.35 148.72 851.105 147.693 850.615C146.667 850.125 145.85 849.355 145.243 848.305C144.66 847.255 144.368 845.902 144.368 844.245V831.645H151.053V842.215C151.053 843.475 151.228 844.432 151.578 845.085C151.952 845.738 152.547 846.065 153.363 846.065C154.623 846.065 155.463 845.552 155.883 844.525C156.327 843.498 156.548 842.028 156.548 840.115V831.645H163.233ZM178.841 831.295C179.214 831.295 179.599 831.318 179.996 831.365C180.392 831.412 180.684 831.458 180.871 831.505L180.276 837.805C180.042 837.758 179.751 837.712 179.401 837.665C179.074 837.618 178.607 837.595 178.001 837.595C177.441 837.595 176.834 837.677 176.181 837.84C175.551 838.003 175.002 838.365 174.536 838.925C174.069 839.462 173.836 840.313 173.836 841.48V851H167.151V831.645H172.121L173.171 834.725H173.486C174.022 833.768 174.769 832.963 175.726 832.31C176.706 831.633 177.744 831.295 178.841 831.295ZM206.482 831.295C208.699 831.295 210.39 831.855 211.557 832.975C212.724 834.095 213.307 835.903 213.307 838.4V851H206.622V840.465C206.622 838.995 206.424 837.98 206.027 837.42C205.63 836.837 205.047 836.545 204.277 836.545C203.204 836.545 202.457 837.023 202.037 837.98C201.617 838.913 201.407 840.243 201.407 841.97V851H194.722V840.465C194.722 839.065 194.535 838.062 194.162 837.455C193.789 836.848 193.229 836.545 192.482 836.545C191.339 836.545 190.557 837.058 190.137 838.085C189.74 839.112 189.542 840.593 189.542 842.53V851H182.857V831.645H187.897L188.877 834.025H189.052C189.565 833.232 190.3 832.578 191.257 832.065C192.237 831.552 193.439 831.295 194.862 831.295C196.285 831.295 197.452 831.54 198.362 832.03C199.295 832.497 200.054 833.15 200.637 833.99H200.847C201.454 833.127 202.235 832.462 203.192 831.995C204.172 831.528 205.269 831.295 206.482 831.295Z" fill="black"/>
<path d="M241.98 849.48V829.8H246.9V831.68H244.62V847.6H246.9V849.48H241.98ZM252.888 835.24C252.888 837.04 254.468 838 256.808 838C259.168 838 260.728 837.04 260.728 835.24C260.728 833.46 259.168 832.48 256.808 832.48C254.468 832.48 252.888 833.46 252.888 835.24ZM258.428 843.24H265.328V845.82H248.308V843.24H255.188V840.46C251.968 839.96 249.688 838.02 249.688 835.24C249.688 832.04 252.768 829.94 256.808 829.94C260.848 829.94 263.928 832.04 263.928 835.24C263.928 838.02 261.628 839.96 258.428 840.46V843.24ZM271.526 841C272.666 841 273.386 839.78 273.386 837.12C273.386 834.5 272.666 833.28 271.526 833.28C270.386 833.28 269.666 834.5 269.666 837.12C269.666 839.78 270.386 841 271.526 841ZM279.006 829.08H282.246V847.96H279.006V838.24H276.426C276.086 841.78 274.126 843.94 271.526 843.94C268.686 843.94 266.586 841.34 266.586 837.12C266.586 832.94 268.686 830.34 271.526 830.34C274.026 830.34 275.946 832.34 276.386 835.66H279.006V829.08ZM296.185 835.68V834.2H289.345V835.68H296.185ZM299.385 829.82V838.22H286.145V829.82H289.345V831.7H296.185V829.82H299.385ZM301.305 839.76V842.28H294.365V847.9H291.125V842.28H284.325V839.76H301.305ZM308.643 842.94V845.2H315.003V842.94H308.643ZM305.463 847.7V840.44H318.163V847.7H305.463ZM307.523 836.66C308.643 836.66 309.463 836 309.463 834.7C309.463 833.44 308.643 832.76 307.523 832.76C306.403 832.76 305.583 833.44 305.583 834.7C305.583 836 306.403 836.66 307.523 836.66ZM314.923 829.14H318.163V839.7H314.923V835.98H312.363C311.803 837.98 309.883 839.34 307.523 839.34C304.703 839.34 302.503 837.38 302.503 834.7C302.503 832.02 304.703 830.06 307.523 830.06C309.863 830.06 311.783 831.4 312.343 833.4H314.923V829.14ZM320.702 849.48V847.6H322.982V831.68H320.702V829.8H325.622V849.48H320.702Z" fill="black"/>
<path d="M1293 828L1311 846L1329 828" stroke="black" stroke-width="6"/>
<path d="M79.025 980L77.8 975.31H69.68L68.42 980H61L69.155 954.905H78.15L86.41 980H79.025ZM75.315 965.685C75.1983 965.242 75.035 964.612 74.825 963.795C74.615 962.955 74.405 962.092 74.195 961.205C73.985 960.318 73.8217 959.595 73.705 959.035C73.6117 959.595 73.46 960.295 73.25 961.135C73.0633 961.975 72.865 962.803 72.655 963.62C72.4683 964.437 72.305 965.125 72.165 965.685L71.08 969.78H76.4L75.315 965.685ZM94.6905 959.42C94.6905 960.097 94.6672 960.75 94.6205 961.38C94.5738 962.01 94.5155 962.593 94.4455 963.13H94.6905C95.1805 962.337 95.8338 961.672 96.6505 961.135C97.4672 960.575 98.5288 960.295 99.8355 960.295C101.842 960.295 103.487 961.147 104.771 962.85C106.054 964.553 106.696 967.027 106.696 970.27C106.696 973.583 106.042 976.092 104.736 977.795C103.429 979.498 101.726 980.35 99.6255 980.35C98.2722 980.35 97.2338 980.117 96.5105 979.65C95.7872 979.16 95.1805 978.647 94.6905 978.11H94.2705L93.2205 980H88.0055V953.4H94.6905V959.42ZM97.3855 965.545C96.4522 965.545 95.7638 965.872 95.3205 966.525C94.9005 967.178 94.6905 968.193 94.6905 969.57V970.515C94.6905 972.008 94.8888 973.128 95.2855 973.875C95.7055 974.598 96.4288 974.96 97.4555 974.96C99.0888 974.96 99.9055 973.373 99.9055 970.2C99.9055 967.097 99.0655 965.545 97.3855 965.545ZM118.511 960.295C121.334 960.295 123.562 961.03 125.196 962.5C126.829 963.97 127.646 966.187 127.646 969.15V972.125H115.711C115.757 973.128 116.131 973.957 116.831 974.61C117.554 975.263 118.592 975.59 119.946 975.59C121.159 975.59 122.267 975.473 123.271 975.24C124.274 975.007 125.312 974.633 126.386 974.12V978.915C125.452 979.405 124.426 979.767 123.306 980C122.209 980.233 120.821 980.35 119.141 980.35C117.181 980.35 115.431 980.012 113.891 979.335C112.374 978.635 111.172 977.55 110.286 976.08C109.399 974.61 108.956 972.732 108.956 970.445C108.956 968.112 109.352 966.198 110.146 964.705C110.962 963.212 112.082 962.103 113.506 961.38C114.952 960.657 116.621 960.295 118.511 960.295ZM118.756 964.845C117.962 964.845 117.297 965.09 116.761 965.58C116.247 966.07 115.944 966.852 115.851 967.925H121.591C121.567 967.062 121.311 966.338 120.821 965.755C120.354 965.148 119.666 964.845 118.756 964.845ZM142.841 960.295C144.848 960.295 146.481 960.855 147.741 961.975C149.001 963.095 149.631 964.903 149.631 967.4V980H142.946V969.43C142.946 968.147 142.76 967.178 142.386 966.525C142.013 965.872 141.418 965.545 140.601 965.545C139.341 965.545 138.49 966.058 138.046 967.085C137.626 968.112 137.416 969.593 137.416 971.53V980H130.731V960.645H135.771L136.681 963.2H136.926C137.533 962.29 138.326 961.578 139.306 961.065C140.31 960.552 141.488 960.295 142.841 960.295ZM159.499 980.35C157.515 980.35 155.87 979.498 154.564 977.795C153.28 976.092 152.639 973.607 152.639 970.34C152.639 967.027 153.292 964.53 154.599 962.85C155.929 961.147 157.644 960.295 159.744 960.295C161.05 960.295 162.089 960.563 162.859 961.1C163.652 961.637 164.305 962.313 164.819 963.13H164.959C164.865 962.64 164.784 961.963 164.714 961.1C164.667 960.237 164.644 959.397 164.644 958.58V953.4H171.364V980H166.324L164.889 977.55H164.644C164.177 978.32 163.535 978.985 162.719 979.545C161.902 980.082 160.829 980.35 159.499 980.35ZM162.229 975.065C163.302 975.065 164.06 974.727 164.504 974.05C164.947 973.373 165.18 972.335 165.204 970.935V970.41C165.204 968.893 164.982 967.727 164.539 966.91C164.119 966.093 163.325 965.685 162.159 965.685C161.365 965.685 160.7 966.07 160.164 966.84C159.65 967.61 159.394 968.812 159.394 970.445C159.394 972.055 159.65 973.233 160.164 973.98C160.7 974.703 161.389 975.065 162.229 975.065ZM181.954 959.42C181.954 960.097 181.931 960.75 181.884 961.38C181.837 962.01 181.779 962.593 181.709 963.13H181.954C182.444 962.337 183.097 961.672 183.914 961.135C184.731 960.575 185.792 960.295 187.099 960.295C189.106 960.295 190.751 961.147 192.034 962.85C193.317 964.553 193.959 967.027 193.959 970.27C193.959 973.583 193.306 976.092 191.999 977.795C190.692 979.498 188.989 980.35 186.889 980.35C185.536 980.35 184.497 980.117 183.774 979.65C183.051 979.16 182.444 978.647 181.954 978.11H181.534L180.484 980H175.269V953.4H181.954V959.42ZM184.649 965.545C183.716 965.545 183.027 965.872 182.584 966.525C182.164 967.178 181.954 968.193 181.954 969.57V970.515C181.954 972.008 182.152 973.128 182.549 973.875C182.969 974.598 183.692 974.96 184.719 974.96C186.352 974.96 187.169 973.373 187.169 970.2C187.169 967.097 186.329 965.545 184.649 965.545ZM208.749 960.295C209.123 960.295 209.508 960.318 209.904 960.365C210.301 960.412 210.593 960.458 210.779 960.505L210.184 966.805C209.951 966.758 209.659 966.712 209.309 966.665C208.983 966.618 208.516 966.595 207.909 966.595C207.349 966.595 206.743 966.677 206.089 966.84C205.459 967.003 204.911 967.365 204.444 967.925C203.978 968.462 203.744 969.313 203.744 970.48V980H197.059V960.645H202.029L203.079 963.725H203.394C203.931 962.768 204.678 961.963 205.634 961.31C206.614 960.633 207.653 960.295 208.749 960.295ZM230.562 970.27C230.562 973.513 229.699 976.01 227.972 977.76C226.245 979.487 223.877 980.35 220.867 980.35C219 980.35 217.344 979.965 215.897 979.195C214.45 978.402 213.307 977.258 212.467 975.765C211.65 974.248 211.242 972.417 211.242 970.27C211.242 967.073 212.105 964.612 213.832 962.885C215.559 961.158 217.939 960.295 220.972 960.295C222.839 960.295 224.484 960.68 225.907 961.45C227.354 962.22 228.485 963.352 229.302 964.845C230.142 966.315 230.562 968.123 230.562 970.27ZM218.032 970.27C218.032 971.927 218.254 973.198 218.697 974.085C219.14 974.948 219.887 975.38 220.937 975.38C221.964 975.38 222.687 974.948 223.107 974.085C223.55 973.198 223.772 971.927 223.772 970.27C223.772 968.613 223.55 967.365 223.107 966.525C222.687 965.685 221.952 965.265 220.902 965.265C219.899 965.265 219.164 965.685 218.697 966.525C218.254 967.365 218.032 968.613 218.032 970.27ZM243.152 975.065C243.759 975.065 244.307 975.007 244.797 974.89C245.31 974.75 245.835 974.587 246.372 974.4V979.265C245.649 979.568 244.879 979.825 244.062 980.035C243.245 980.245 242.207 980.35 240.947 980.35C239.687 980.35 238.579 980.152 237.622 979.755C236.689 979.358 235.954 978.682 235.417 977.725C234.88 976.745 234.612 975.38 234.612 973.63V965.65H232.267V962.92L235.242 960.82L236.957 956.76H241.332V960.645H246.092V965.65H241.332V973.175C241.332 974.435 241.939 975.065 243.152 975.065Z" fill="black"/>
<path d="M273.98 978.48V958.8H278.9V960.68H276.62V976.6H278.9V978.48H273.98ZM285.348 970C286.528 970 287.288 968.78 287.288 966.14C287.288 963.5 286.528 962.28 285.348 962.28C284.188 962.28 283.428 963.5 283.428 966.14C283.428 968.78 284.188 970 285.348 970ZM285.348 959.34C288.248 959.34 290.408 961.94 290.408 966.14C290.408 970.34 288.248 972.94 285.348 972.94C282.468 972.94 280.308 970.34 280.308 966.14C280.308 961.94 282.468 959.34 285.348 959.34ZM297.688 964.98V967.62H295.168V976.9H291.928V958.12H295.168V964.98H297.688ZM314.406 958.14V972.24H311.346V958.14H314.406ZM303.406 966.66V964.66H301.886V966.66H303.406ZM306.386 965.74V969.18H298.866V959.54H301.886V962.22H303.406V959.54H306.386V963.18H307.486V958.42H310.486V971.68H307.486V965.74H306.386ZM304.786 974.08H314.806V976.62H301.546V970.44H304.786V974.08ZM331.585 967.54V970.06H318.205V959.38H331.465V961.92H321.505V963.46H331.005V965.92H321.505V967.54H331.585ZM316.325 972.3H333.325V974.88H316.325V972.3ZM338.493 972.18H355.473V974.78H338.493V972.18ZM340.173 959.28H343.373V962.08H350.533V959.28H353.733V969.42H340.173V959.28ZM343.373 964.56V966.88H350.533V964.56H343.373ZM366.592 972.36H373.472V974.96H356.492V972.36H363.352V969.92H358.352V963.32H368.472V961.78H358.332V959.24H371.672V965.8H361.552V967.38H372.092V969.92H366.592V972.36ZM389.75 967.54V970.06H376.37V959.38H389.63V961.92H379.67V963.46H389.17V965.92H379.67V967.54H389.75ZM374.49 972.3H391.49V974.88H374.49V972.3ZM392.869 978.48V976.6H395.149V960.68H392.869V958.8H397.789V978.48H392.869Z" fill="black"/>
<path d="M1293 957L1311 975L1329 957" stroke="black" stroke-width="6"/>
<path d="M74.72 1109H67.965V1089.54H61.875V1084.01H80.81V1089.54H74.72V1109ZM99.3078 1099.27C99.3078 1102.51 98.4444 1105.01 96.7178 1106.76C94.9911 1108.49 92.6228 1109.35 89.6128 1109.35C87.7461 1109.35 86.0894 1108.96 84.6428 1108.19C83.1961 1107.4 82.0528 1106.26 81.2128 1104.76C80.3961 1103.25 79.9878 1101.42 79.9878 1099.27C79.9878 1096.07 80.8511 1093.61 82.5778 1091.88C84.3044 1090.16 86.6844 1089.29 89.7178 1089.29C91.5844 1089.29 93.2294 1089.68 94.6528 1090.45C96.0994 1091.22 97.2311 1092.35 98.0478 1093.84C98.8878 1095.31 99.3078 1097.12 99.3078 1099.27ZM86.7778 1099.27C86.7778 1100.93 86.9994 1102.2 87.4428 1103.08C87.8861 1103.95 88.6328 1104.38 89.6828 1104.38C90.7094 1104.38 91.4328 1103.95 91.8528 1103.08C92.2961 1102.2 92.5178 1100.93 92.5178 1099.27C92.5178 1097.61 92.2961 1096.36 91.8528 1095.52C91.4328 1094.68 90.6978 1094.26 89.6478 1094.26C88.6444 1094.26 87.9094 1094.68 87.4428 1095.52C86.9994 1096.36 86.7778 1097.61 86.7778 1099.27ZM114.103 1089.29C114.476 1089.29 114.861 1089.32 115.258 1089.36C115.655 1089.41 115.946 1089.46 116.133 1089.5L115.538 1095.8C115.305 1095.76 115.013 1095.71 114.663 1095.66C114.336 1095.62 113.87 1095.59 113.263 1095.59C112.703 1095.59 112.096 1095.68 111.443 1095.84C110.813 1096 110.265 1096.36 109.798 1096.92C109.331 1097.46 109.098 1098.31 109.098 1099.48V1109H102.413V1089.64H107.383L108.433 1092.72H108.748C109.285 1091.77 110.031 1090.96 110.988 1090.31C111.968 1089.63 113.006 1089.29 114.103 1089.29ZM132.504 1103.05C132.504 1104.26 132.224 1105.35 131.664 1106.3C131.128 1107.26 130.253 1108.01 129.039 1108.54C127.849 1109.08 126.274 1109.35 124.314 1109.35C122.938 1109.35 121.701 1109.27 120.604 1109.11C119.531 1108.96 118.434 1108.68 117.314 1108.26V1102.91C118.551 1103.47 119.799 1103.88 121.059 1104.13C122.319 1104.37 123.311 1104.48 124.034 1104.48C125.481 1104.48 126.204 1104.16 126.204 1103.5C126.204 1103.22 126.088 1102.98 125.854 1102.77C125.621 1102.56 125.201 1102.33 124.594 1102.07C124.011 1101.81 123.171 1101.46 122.074 1101.02C120.464 1100.34 119.263 1099.57 118.469 1098.71C117.676 1097.82 117.279 1096.59 117.279 1095C117.279 1093.11 118.003 1091.69 119.449 1090.73C120.919 1089.77 122.856 1089.29 125.259 1089.29C126.543 1089.29 127.744 1089.43 128.864 1089.72C129.984 1089.99 131.151 1090.4 132.364 1090.94L130.544 1095.24C129.588 1094.8 128.619 1094.45 127.639 1094.19C126.659 1093.94 125.878 1093.81 125.294 1093.81C124.198 1093.81 123.649 1094.08 123.649 1094.61C123.649 1094.85 123.743 1095.06 123.929 1095.24C124.139 1095.43 124.524 1095.64 125.084 1095.87C125.644 1096.11 126.461 1096.45 127.534 1096.89C128.654 1097.33 129.576 1097.82 130.299 1098.36C131.046 1098.87 131.594 1099.5 131.944 1100.25C132.318 1100.97 132.504 1101.91 132.504 1103.05ZM144.32 1109.35C141.38 1109.35 139.035 1108.56 137.285 1106.97C135.535 1105.38 134.66 1102.86 134.66 1099.41C134.66 1097.05 135.104 1095.14 135.99 1093.67C136.877 1092.18 138.079 1091.08 139.595 1090.38C141.135 1089.66 142.885 1089.29 144.845 1089.29C146.035 1089.29 147.155 1089.42 148.205 1089.68C149.279 1089.94 150.27 1090.3 151.18 1090.76L149.22 1095.7C148.427 1095.35 147.68 1095.07 146.98 1094.86C146.304 1094.65 145.592 1094.54 144.845 1094.54C143.842 1094.54 143.025 1094.94 142.395 1095.73C141.765 1096.53 141.45 1097.74 141.45 1099.37C141.45 1101.05 141.765 1102.26 142.395 1102.98C143.049 1103.68 143.877 1104.03 144.88 1104.03C145.837 1104.03 146.794 1103.88 147.75 1103.57C148.73 1103.27 149.652 1102.85 150.515 1102.31V1107.63C149.722 1108.15 148.824 1108.57 147.82 1108.89C146.817 1109.2 145.65 1109.35 144.32 1109.35ZM160.352 1086.18C160.352 1087.6 160.317 1088.8 160.247 1089.78C160.177 1090.76 160.119 1091.51 160.072 1092.02H160.387C161.017 1091.02 161.776 1090.32 162.662 1089.92C163.549 1089.5 164.564 1089.29 165.707 1089.29C166.991 1089.29 168.146 1089.54 169.172 1090.03C170.199 1090.52 171.016 1091.29 171.622 1092.34C172.252 1093.37 172.567 1094.72 172.567 1096.4V1109H165.847V1098.43C165.847 1095.84 165.077 1094.54 163.537 1094.54C162.324 1094.54 161.484 1095.06 161.017 1096.08C160.574 1097.11 160.352 1098.58 160.352 1100.49V1109H153.667V1082.4H160.352V1086.18ZM195.245 1089.64V1109H190.205L189.365 1106.58H188.98C188.373 1107.56 187.545 1108.28 186.495 1108.72C185.445 1109.14 184.325 1109.35 183.135 1109.35C181.875 1109.35 180.731 1109.11 179.705 1108.61C178.678 1108.12 177.861 1107.35 177.255 1106.3C176.671 1105.25 176.38 1103.9 176.38 1102.24V1089.64H183.065V1100.21C183.065 1101.47 183.24 1102.43 183.59 1103.08C183.963 1103.74 184.558 1104.06 185.375 1104.06C186.635 1104.06 187.475 1103.55 187.895 1102.52C188.338 1101.5 188.56 1100.03 188.56 1098.11V1089.64H195.245ZM205.847 1109H199.162V1082.4H205.847V1109ZM228.605 1089.64V1109H223.565L222.725 1106.58H222.34C221.734 1107.56 220.905 1108.28 219.855 1108.72C218.805 1109.14 217.685 1109.35 216.495 1109.35C215.235 1109.35 214.092 1109.11 213.065 1108.61C212.039 1108.12 211.222 1107.35 210.615 1106.3C210.032 1105.25 209.74 1103.9 209.74 1102.24V1089.64H216.425V1100.21C216.425 1101.47 216.6 1102.43 216.95 1103.08C217.324 1103.74 217.919 1104.06 218.735 1104.06C219.995 1104.06 220.835 1103.55 221.255 1102.52C221.699 1101.5 221.92 1100.03 221.92 1098.11V1089.64H228.605ZM246.908 1103.05C246.908 1104.26 246.628 1105.35 246.068 1106.3C245.531 1107.26 244.656 1108.01 243.443 1108.54C242.253 1109.08 240.678 1109.35 238.718 1109.35C237.341 1109.35 236.104 1109.27 235.008 1109.11C233.934 1108.96 232.838 1108.68 231.718 1108.26V1102.91C232.954 1103.47 234.203 1103.88 235.463 1104.13C236.723 1104.37 237.714 1104.48 238.438 1104.48C239.884 1104.48 240.608 1104.16 240.608 1103.5C240.608 1103.22 240.491 1102.98 240.258 1102.77C240.024 1102.56 239.604 1102.33 238.998 1102.07C238.414 1101.81 237.574 1101.46 236.478 1101.02C234.868 1100.34 233.666 1099.57 232.873 1098.71C232.079 1097.82 231.683 1096.59 231.683 1095C231.683 1093.11 232.406 1091.69 233.853 1090.73C235.323 1089.77 237.259 1089.29 239.663 1089.29C240.946 1089.29 242.148 1089.43 243.268 1089.72C244.388 1089.99 245.554 1090.4 246.768 1090.94L244.948 1095.24C243.991 1094.8 243.023 1094.45 242.043 1094.19C241.063 1093.94 240.281 1093.81 239.698 1093.81C238.601 1093.81 238.053 1094.08 238.053 1094.61C238.053 1094.85 238.146 1095.06 238.333 1095.24C238.543 1095.43 238.928 1095.64 239.488 1095.87C240.048 1096.11 240.864 1096.45 241.938 1096.89C243.058 1097.33 243.979 1097.82 244.703 1098.36C245.449 1098.87 245.998 1099.5 246.348 1100.25C246.721 1100.97 246.908 1101.91 246.908 1103.05ZM264.289 1103.05C264.289 1104.26 264.009 1105.35 263.449 1106.3C262.912 1107.26 262.037 1108.01 260.824 1108.54C259.634 1109.08 258.059 1109.35 256.099 1109.35C254.722 1109.35 253.485 1109.27 252.389 1109.11C251.315 1108.96 250.219 1108.68 249.099 1108.26V1102.91C250.335 1103.47 251.584 1103.88 252.844 1104.13C254.104 1104.37 255.095 1104.48 255.819 1104.48C257.265 1104.48 257.989 1104.16 257.989 1103.5C257.989 1103.22 257.872 1102.98 257.639 1102.77C257.405 1102.56 256.985 1102.33 256.379 1102.07C255.795 1101.81 254.955 1101.46 253.859 1101.02C252.249 1100.34 251.047 1099.57 250.254 1098.71C249.46 1097.82 249.064 1096.59 249.064 1095C249.064 1093.11 249.787 1091.69 251.234 1090.73C252.704 1089.77 254.64 1089.29 257.044 1089.29C258.327 1089.29 259.529 1089.43 260.649 1089.72C261.769 1089.99 262.935 1090.4 264.149 1090.94L262.329 1095.24C261.372 1094.8 260.404 1094.45 259.424 1094.19C258.444 1093.94 257.662 1093.81 257.079 1093.81C255.982 1093.81 255.434 1094.08 255.434 1094.61C255.434 1094.85 255.527 1095.06 255.714 1095.24C255.924 1095.43 256.309 1095.64 256.869 1095.87C257.429 1096.11 258.245 1096.45 259.319 1096.89C260.439 1097.33 261.36 1097.82 262.084 1098.36C262.83 1098.87 263.379 1099.5 263.729 1100.25C264.102 1100.97 264.289 1101.91 264.289 1103.05ZM279.115 1089.29C281.261 1089.29 282.941 1090.16 284.155 1091.88C285.368 1093.59 285.975 1096.05 285.975 1099.27C285.975 1101.46 285.66 1103.32 285.03 1104.83C284.423 1106.33 283.583 1107.46 282.51 1108.23C281.46 1108.98 280.258 1109.35 278.905 1109.35C277.551 1109.35 276.49 1109.11 275.72 1108.61C274.973 1108.12 274.39 1107.62 273.97 1107.11H273.76C273.806 1107.55 273.853 1108.03 273.9 1108.54C273.946 1109.06 273.97 1109.65 273.97 1110.33V1117.4H267.285V1089.64H272.71L273.655 1092.09H273.97C274.436 1091.35 275.066 1090.69 275.86 1090.13C276.676 1089.57 277.761 1089.29 279.115 1089.29ZM276.595 1094.54C275.615 1094.54 274.938 1094.89 274.565 1095.59C274.215 1096.29 274.016 1097.33 273.97 1098.71V1099.23C273.97 1100.77 274.156 1101.95 274.53 1102.77C274.903 1103.56 275.603 1103.96 276.63 1103.96C277.47 1103.96 278.1 1103.6 278.52 1102.87C278.963 1102.13 279.185 1100.9 279.185 1099.2C279.185 1097.5 278.963 1096.29 278.52 1095.59C278.076 1094.89 277.435 1094.54 276.595 1094.54ZM298.525 1089.29C300.975 1089.29 302.888 1089.9 304.265 1091.11C305.642 1092.33 306.33 1094.05 306.33 1096.29V1109H301.71L300.415 1106.44H300.275C299.738 1107.12 299.178 1107.68 298.595 1108.12C298.035 1108.54 297.382 1108.85 296.635 1109.04C295.888 1109.25 294.978 1109.35 293.905 1109.35C292.225 1109.35 290.825 1108.84 289.705 1107.81C288.585 1106.78 288.025 1105.21 288.025 1103.08C288.025 1101.01 288.737 1099.47 290.16 1098.46C291.607 1097.46 293.695 1096.9 296.425 1096.78L299.645 1096.68V1096.4C299.645 1095.54 299.435 1094.93 299.015 1094.58C298.595 1094.21 298.023 1094.02 297.3 1094.02C296.53 1094.02 295.678 1094.16 294.745 1094.44C293.812 1094.7 292.867 1095.03 291.91 1095.45L289.985 1091.04C291.105 1090.46 292.365 1090.03 293.765 1089.75C295.188 1089.45 296.775 1089.29 298.525 1089.29ZM298.14 1100.42C296.927 1100.47 296.063 1100.69 295.55 1101.09C295.06 1101.46 294.815 1102 294.815 1102.7C294.815 1103.35 294.99 1103.84 295.34 1104.17C295.69 1104.47 296.157 1104.62 296.74 1104.62C297.557 1104.62 298.245 1104.37 298.805 1103.86C299.388 1103.34 299.68 1102.68 299.68 1101.86V1100.35L298.14 1100.42ZM322.292 1089.29C324.298 1089.29 325.932 1089.85 327.192 1090.97C328.452 1092.09 329.082 1093.9 329.082 1096.4V1109H322.397V1098.43C322.397 1097.15 322.21 1096.18 321.837 1095.52C321.463 1094.87 320.868 1094.54 320.052 1094.54C318.792 1094.54 317.94 1095.06 317.497 1096.08C317.077 1097.11 316.867 1098.59 316.867 1100.53V1109H310.182V1089.64H315.222L316.132 1092.2H316.377C316.983 1091.29 317.777 1090.58 318.757 1090.06C319.76 1089.55 320.938 1089.29 322.292 1089.29ZM336.324 1081.84C337.281 1081.84 338.109 1082.04 338.809 1082.43C339.532 1082.83 339.894 1083.62 339.894 1084.81C339.894 1085.96 339.532 1086.74 338.809 1087.16C338.109 1087.56 337.281 1087.75 336.324 1087.75C335.344 1087.75 334.504 1087.56 333.804 1087.16C333.127 1086.74 332.789 1085.96 332.789 1084.81C332.789 1083.62 333.127 1082.83 333.804 1082.43C334.504 1082.04 335.344 1081.84 336.324 1081.84ZM339.649 1089.64V1109H332.964V1089.64H339.649ZM350.331 1092.86C350.331 1093.66 350.296 1094.53 350.226 1095.49C350.156 1096.45 350.062 1097.32 349.946 1098.11H350.086C350.342 1097.72 350.669 1097.22 351.066 1096.61C351.486 1096 351.847 1095.5 352.151 1095.1L356.491 1089.64H363.946L357.226 1097.87L364.366 1109H356.736L352.501 1102.07L350.331 1103.71V1109H343.611V1082.4H350.331V1092.86Z" fill="black"/>
<path d="M390.98 1107.48V1087.8H395.9V1089.68H393.62V1105.6H395.9V1107.48H390.98ZM401.208 1091.38V1098.84C403.568 1098.82 405.648 1098.68 407.888 1098.3L408.188 1100.94C405.408 1101.44 402.748 1101.52 399.628 1101.52H397.988V1088.8H406.768V1091.38H401.208ZM414.688 1093.8V1096.44H412.168V1105.94H408.928V1087.1H412.168V1093.8H414.688ZM431.586 1087.12V1096.58H428.526V1087.12H431.586ZM424.546 1093.7H422.146C421.046 1095.44 419.206 1096.74 416.526 1097.68L415.166 1095.46C416.706 1094.96 417.866 1094.32 418.686 1093.6L415.746 1093.94L415.366 1091.48L420.206 1091.28C420.266 1091.08 420.286 1090.88 420.326 1090.66H416.106V1088.16H423.526C423.526 1089.26 423.426 1090.24 423.206 1091.18H424.546V1087.36H427.546V1096.54H424.546V1093.7ZM421.886 1103.24H432.106V1105.7H418.646V1100.28H428.346V1099.64H418.626V1097.2H431.586V1102.58H421.886V1103.24ZM444.965 1091.44V1090.72H438.605V1091.44H444.965ZM448.165 1087.44V1093.78H435.405V1087.44H438.605V1088.4H444.965V1087.44H448.165ZM438.405 1102.8V1103.44H448.765V1105.82H435.205V1100.62H445.105V1100.06H435.165V1097.72H448.305V1102.8H438.405ZM433.305 1094.48H450.305V1096.98H433.305V1094.48ZM462.623 1095.02L462.983 1097.56C460.383 1098 457.883 1098.06 453.983 1098.06H452.283V1091.84H457.783V1090.66H452.263V1088.12H460.983V1094.22H455.483V1095.5C458.403 1095.48 460.443 1095.38 462.623 1095.02ZM454.083 1101.94V1099.4H467.023V1105.9H463.783V1101.94H454.083ZM463.783 1087.12H467.023V1098.7H463.783V1087.12ZM469.702 1107.48V1105.6H471.982V1089.68H469.702V1087.8H474.622V1107.48H469.702Z" fill="black"/>
<path d="M1293 1086L1311 1104L1329 1086" stroke="black" stroke-width="6"/>
</svg>
