<svg width="1728" height="847" viewBox="0 0 1728 847" fill="none" xmlns="http://www.w3.org/2000/svg">
<g clip-path="url(#clip0_140_965)">
<rect width="1728" height="847" fill="white"/>
<rect y="-81" width="1728" height="989" fill="#14FF00"/>
<g filter="url(#filter0_i_140_965)">
<path d="M-87.4103 111.14H-50.2564V136.948H146.128V111.14H105.436V82.7507H146.128L169.128 33.0704H190.359L195.077 60.1687H212.179V136.948H169.128V162.755H278.231V136.948L240.487 95.6547V60.1687L254.641 44.684V4.03637H298.282V-23.7072H379.077V-44.3536H402.667V-23.7072H430.385V-1.12523H453.974V-23.7072H540.667V-44.3536L559.538 -65H650.949L669.82 -44.3536V-23.7072L690.461 -1.12523V82.7507L617.333 162.755H588.436L540.667 215.017L559.538 235.663L540.667 256.309L502.923 215.017L520.615 195.661L494.077 166.627V136.948H520.615V111.14L465.179 50.4907H430.385V-1.12523H402.667L360.795 44.684V95.6547L383.205 109.204H402.667L459.872 171.788L420.359 215.017L360.795 149.852H340.154L278.231 217.597L305.949 247.922V271.149H340.154V297.602H360.795V217.597H402.667V247.922H442.769L497.615 307.925V330.507H430.385L325.41 445.353H252.282V532.455H294.154V511.163H318.923V532.455L294.154 559.553H252.282V532.455H212.179V504.066H169.128V456.967L105.436 393.737V355.67H130.795V319.539H105.436V289.86H63.5641V256.309H48.2308V235.663H1.05127V209.855H-30.7949V235.663L-57.3333 264.697H-87.4103V235.663H-109.821V195.661H-134V136.948H-87.4103V111.14Z" fill="white"/>
<path d="M389.692 594.394V564.715H418.589L428.615 594.394H471.077V622.138H525.333V675.044H617.333V747.306H590.205V773.76H566.615V800.213H512.359V826.021L443.359 901.509V926.027L428.615 942.157V984.095H403.256V1017H368.461V913.123H389.692V851.184L409.154 829.892V747.306H368.461V696.981H341.333V642.139H368.461V594.394H389.692Z" fill="white"/>
<path d="M354.897 527.939L371.41 509.873L387.923 527.939L371.41 546.004L354.897 527.939Z" fill="white"/>
<path d="M704.615 161.465H668.641H653.897V185.338H676.308L688.103 198.242H718.769V176.95L704.615 161.465Z" fill="white"/>
<path d="M726.436 -26.9331H688.103V-18.5455L704.615 -0.479918H726.436V-26.9331Z" fill="white"/>
<path d="M858.539 16.2953L873.872 -0.479918H947.59V25.9733H906.897V49.2005H888.615L858.539 16.2953Z" fill="white"/>
<path d="M922.231 109.204V133.076V136.948H888.615L817.846 214.372V238.244H839.667V304.054H817.846L796.026 280.182V244.696H741.18L720.539 267.278L740 288.57L752.385 275.02H779.513V351.799H805.462V373.091H839.667V351.799H882.718V373.091H908.667V402.77H934.615V373.091H952.308V346.638H1012.46V373.091H999.487V391.802H952.308V436.965H991.231V453.741H934.615V427.288H908.667V453.741H882.718V427.288H865.026V382.769H839.667V411.158H805.462V429.868H788.359L779.513 420.19L805.462 391.802L788.359 373.091H752.385V440.837L708.744 488.581V586.007L741.18 621.493H858.539L839.667 642.139V673.754H865.026V782.793H888.615V854.41H942.282L985.333 807.31V771.179L1006.56 747.952V689.884L1026.62 667.947L1050.21 642.139L1076.15 613.75V586.007H1044.31V561.489H1076.15V542.778H1124.51V510.518H1073.21V488.581H1055.51V453.741H1073.21L1092.67 475.032H1168.74V500.195H1220.05V549.875L1193.51 578.909L1225.36 613.75H1237.15L1250.72 598.911L1225.36 571.167L1244.82 549.875L1264.87 527.939V500.195H1293.77V520.196H1341.54V549.875L1368.08 578.909L1349.79 598.911L1363.36 613.75H1387.54L1398.74 594.394V571.167L1379.28 549.875V510.518H1411.13H1445.92L1471.87 482.129L1458.31 427.288L1480.72 402.77L1503.13 427.288L1494.28 436.965V453.741H1529.08V427.288L1514.33 411.158V373.091H1536.15V346.638H1557.38V318.249H1603.38V288.57H1575.67V267.278H1557.38V238.889H1638.77V211.791H1668.26V252.438V288.57H1692.44V258.245L1710.13 238.889H1744.92V211.791H1793.28V184.692H1812.15V211.791L1836.92 238.889L1861.69 211.791L1836.92 184.692V161.465H1793.28V133.076H1668.26V109.204H1603.38V49.2005H1552.08V82.1056H1575.67V109.204H1519.64V82.1056H1480.72V109.204H1453.59V82.1056H1428.23V57.5881H1387.54V25.9733H1358.64V57.5881H1293.77V82.1056H1248.36V109.204H1164.03V133.076H1139.26V82.1056L1154.59 65.3305V49.2005H1124.51V82.1056H1097.38V133.076H1076.15V161.465H1044.31L1010.69 198.242L991.231 176.95L1012.46 153.723V133.076H969.41V109.204H922.231Z" fill="white"/>
<path d="M1416.44 798.922L1432.95 782.147H1471.28V760.21H1505.49V744.08L1519.05 729.24H1548.54L1568.59 751.177H1629.33L1672.97 798.922V844.086L1651.15 867.958H1621.08L1598.67 892.476L1621.08 916.993L1603.97 935.704L1582.74 912.477H1568.59V887.959L1542.05 858.925H1454.18V887.959H1432.95L1416.44 869.894V798.922Z" fill="white"/>
<path d="M1076.74 746.016L1072.03 724.724L1034.28 731.821V766.662L1020.72 781.502V811.826H1055.51V770.533L1060.23 753.113L1076.74 746.016Z" fill="white"/>
<path d="M1184.67 967.319H1160.49V986.675H1184.67V967.319Z" fill="white"/>
<path d="M1334.46 674.399V645.365H1356.87V674.399H1334.46Z" fill="white"/>
<path d="M1365.13 709.885V689.883H1385.18V709.885H1365.13Z" fill="white"/>
<path d="M1423.51 645.365V620.847H1448.87V653.752L1430 674.399H1402.87V645.365H1423.51Z" fill="white"/>
<path d="M1464.2 571.167L1442.38 547.294L1464.2 531.81H1493.69V571.167V626.654H1477.18L1464.2 612.46V571.167Z" fill="white"/>
<path d="M1511.38 674.399V645.365H1537.92V674.399H1511.38Z" fill="white"/>
<path d="M1562.69 697.626V674.399H1617.54L1631.69 658.914L1645.85 674.399L1619.9 702.787V724.724H1593.95V697.626H1562.69Z" fill="white"/>
<path d="M1691.26 967.319V943.447V935.705H1710.13L1739.03 876.991H1767.33V906.671H1746.69V935.705H1726.05V967.319H1691.26Z" fill="white"/>
<path d="M1580.97 376.316V349.863H1603.39V362.767L1591 376.316V415.028H1571.54V436.32H1553.26V415.028L1565.05 390.511L1580.97 376.316Z" fill="white"/>
</g>
<line x1="156.5" y1="-65" x2="156.5" y2="975" stroke="white" stroke-width="3"/>
<line x1="318.5" y1="-65" x2="318.5" y2="975" stroke="white" stroke-width="3"/>
<line x1="480.5" y1="-65" x2="480.5" y2="975" stroke="white" stroke-width="3"/>
<line x1="642.5" y1="-65" x2="642.5" y2="975" stroke="white" stroke-width="3"/>
<line x1="790.5" y1="-65" x2="790.5" y2="975" stroke="white" stroke-width="3"/>
<line x1="952.5" y1="-65" x2="952.5" y2="975" stroke="white" stroke-width="3"/>
<line x1="1114.5" y1="-65" x2="1114.5" y2="975" stroke="white" stroke-width="3"/>
<line x1="1276.5" y1="-65" x2="1276.5" y2="975" stroke="white" stroke-width="3"/>
<line y1="287.5" x2="1728" y2="287.5" stroke="white" stroke-width="3"/>
<line y1="125.5" x2="1728" y2="125.5" stroke="white" stroke-width="3"/>
<line y1="615.5" x2="1728" y2="615.5" stroke="white" stroke-width="3"/>
<line y1="453.5" x2="1728" y2="453.5" stroke="white" stroke-width="3"/>
<line y1="747.5" x2="1728" y2="747.5" stroke="white" stroke-width="3"/>
<line x1="1447.5" y1="-65" x2="1447.5" y2="975" stroke="white" stroke-width="3"/>
<line x1="1609.5" y1="-65" x2="1609.5" y2="975" stroke="white" stroke-width="3"/>
</g>
<defs>
<filter id="filter0_i_140_965" x="-134" y="-65" width="1995.69" height="1082" filterUnits="userSpaceOnUse" color-interpolation-filters="sRGB">
<feFlood flood-opacity="0" result="BackgroundImageFix"/>
<feBlend mode="normal" in="SourceGraphic" in2="BackgroundImageFix" result="shape"/>
<feColorMatrix in="SourceAlpha" type="matrix" values="0 0 0 0 0 0 0 0 0 0 0 0 0 0 0 0 0 0 127 0" result="hardAlpha"/>
<feOffset/>
<feGaussianBlur stdDeviation="2"/>
<feComposite in2="hardAlpha" operator="arithmetic" k2="-1" k3="1"/>
<feColorMatrix type="matrix" values="0 0 0 0 0 0 0 0 0 0 0 0 0 0 0 0 0 0 0.35 0"/>
<feBlend mode="normal" in2="shape" result="effect1_innerShadow_140_965"/>
</filter>
<clipPath id="clip0_140_965">
<rect width="1728" height="847" fill="white"/>
</clipPath>
</defs>
</svg>
